<mxfile host="app.diagrams.net" modified="2023-03-26T15:05:51.425Z" agent="Mozilla/5.0 (Windows NT 10.0; Win64; x64) AppleWebKit/537.36 (KHTML, like Gecko) Chrome/111.0.0.0 Safari/537.36" etag="m_n64rYIzg3AdXsaFQKG" version="21.1.1" type="github">
  <diagram name="Page-1" id="RoZd-cWgufaqt0LcxTIa">
    <mxGraphModel dx="3810" dy="2833" grid="1" gridSize="10" guides="1" tooltips="1" connect="1" arrows="1" fold="1" page="1" pageScale="1" pageWidth="850" pageHeight="1100" math="0" shadow="0">
      <root>
        <mxCell id="0" />
        <mxCell id="1" parent="0" />
        <mxCell id="kWz1B422EnsW_t5FsSwU-1" value="g" style="curved=1;endArrow=classic;html=1;rounded=0;fillColor=#f8cecc;strokeColor=#b85450;" edge="1" parent="1">
          <mxGeometry width="50" height="50" relative="1" as="geometry">
            <mxPoint x="245" y="1259.71" as="sourcePoint" />
            <mxPoint x="295" y="1209.71" as="targetPoint" />
            <Array as="points">
              <mxPoint x="295" y="1259.71" />
              <mxPoint x="245" y="1209.71" />
            </Array>
          </mxGeometry>
        </mxCell>
        <mxCell id="kWz1B422EnsW_t5FsSwU-2" value="" style="verticalLabelPosition=bottom;verticalAlign=top;html=1;shape=mxgraph.basic.cone;fillColor=#f8cecc;strokeColor=#b85450;" vertex="1" parent="1">
          <mxGeometry x="230" y="1195" width="30" height="30" as="geometry" />
        </mxCell>
        <mxCell id="kWz1B422EnsW_t5FsSwU-3" style="edgeStyle=orthogonalEdgeStyle;rounded=0;orthogonalLoop=1;jettySize=auto;html=1;endArrow=diamondThin;endFill=1;entryX=0.456;entryY=1.04;entryDx=0;entryDy=0;entryPerimeter=0;" edge="1" parent="1" source="kWz1B422EnsW_t5FsSwU-7" target="kWz1B422EnsW_t5FsSwU-251">
          <mxGeometry relative="1" as="geometry">
            <mxPoint x="92" y="590" as="targetPoint" />
            <Array as="points">
              <mxPoint x="78" y="656" />
              <mxPoint x="90" y="656" />
            </Array>
          </mxGeometry>
        </mxCell>
        <mxCell id="kWz1B422EnsW_t5FsSwU-4" value="1" style="edgeLabel;html=1;align=center;verticalAlign=middle;resizable=0;points=[];" connectable="0" vertex="1" parent="kWz1B422EnsW_t5FsSwU-3">
          <mxGeometry x="0.4622" relative="1" as="geometry">
            <mxPoint as="offset" />
          </mxGeometry>
        </mxCell>
        <mxCell id="kWz1B422EnsW_t5FsSwU-5" value="0..*" style="edgeLabel;html=1;align=center;verticalAlign=middle;resizable=0;points=[];" connectable="0" vertex="1" parent="kWz1B422EnsW_t5FsSwU-3">
          <mxGeometry x="-0.5796" relative="1" as="geometry">
            <mxPoint as="offset" />
          </mxGeometry>
        </mxCell>
        <mxCell id="kWz1B422EnsW_t5FsSwU-6" value="has course" style="edgeLabel;html=1;align=center;verticalAlign=middle;resizable=0;points=[];" connectable="0" vertex="1" parent="kWz1B422EnsW_t5FsSwU-3">
          <mxGeometry x="-0.0542" y="-1" relative="1" as="geometry">
            <mxPoint as="offset" />
          </mxGeometry>
        </mxCell>
        <mxCell id="kWz1B422EnsW_t5FsSwU-7" value="Course" style="swimlane;fontStyle=1;align=center;verticalAlign=top;childLayout=stackLayout;horizontal=1;startSize=26;horizontalStack=0;resizeParent=1;resizeParentMax=0;resizeLast=0;collapsible=1;marginBottom=0;fillColor=#f8cecc;strokeColor=#b85450;" vertex="1" parent="1">
          <mxGeometry x="-60" y="686" width="320" height="480" as="geometry" />
        </mxCell>
        <mxCell id="kWz1B422EnsW_t5FsSwU-8" value="#id" style="text;strokeColor=none;fillColor=none;align=left;verticalAlign=top;spacingLeft=4;spacingRight=4;overflow=hidden;rotatable=0;points=[[0,0.5],[1,0.5]];portConstraint=eastwest;" vertex="1" parent="kWz1B422EnsW_t5FsSwU-7">
          <mxGeometry y="26" width="320" height="26" as="geometry" />
        </mxCell>
        <mxCell id="kWz1B422EnsW_t5FsSwU-9" value="#name&#xa;" style="text;strokeColor=none;fillColor=none;align=left;verticalAlign=top;spacingLeft=4;spacingRight=4;overflow=hidden;rotatable=0;points=[[0,0.5],[1,0.5]];portConstraint=eastwest;" vertex="1" parent="kWz1B422EnsW_t5FsSwU-7">
          <mxGeometry y="52" width="320" height="26" as="geometry" />
        </mxCell>
        <mxCell id="kWz1B422EnsW_t5FsSwU-10" value="#short_description" style="text;strokeColor=none;fillColor=none;align=left;verticalAlign=top;spacingLeft=4;spacingRight=4;overflow=hidden;rotatable=0;points=[[0,0.5],[1,0.5]];portConstraint=eastwest;" vertex="1" parent="kWz1B422EnsW_t5FsSwU-7">
          <mxGeometry y="78" width="320" height="26" as="geometry" />
        </mxCell>
        <mxCell id="kWz1B422EnsW_t5FsSwU-11" value="#date" style="text;strokeColor=none;fillColor=none;align=left;verticalAlign=top;spacingLeft=4;spacingRight=4;overflow=hidden;rotatable=0;points=[[0,0.5],[1,0.5]];portConstraint=eastwest;" vertex="1" parent="kWz1B422EnsW_t5FsSwU-7">
          <mxGeometry y="104" width="320" height="26" as="geometry" />
        </mxCell>
        <mxCell id="kWz1B422EnsW_t5FsSwU-12" value="#language" style="text;strokeColor=none;fillColor=none;align=left;verticalAlign=top;spacingLeft=4;spacingRight=4;overflow=hidden;rotatable=0;points=[[0,0.5],[1,0.5]];portConstraint=eastwest;" vertex="1" parent="kWz1B422EnsW_t5FsSwU-7">
          <mxGeometry y="130" width="320" height="26" as="geometry" />
        </mxCell>
        <mxCell id="kWz1B422EnsW_t5FsSwU-13" value="#purpose" style="text;strokeColor=none;fillColor=none;align=left;verticalAlign=top;spacingLeft=4;spacingRight=4;overflow=hidden;rotatable=0;points=[[0,0.5],[1,0.5]];portConstraint=eastwest;" vertex="1" parent="kWz1B422EnsW_t5FsSwU-7">
          <mxGeometry y="156" width="320" height="26" as="geometry" />
        </mxCell>
        <mxCell id="kWz1B422EnsW_t5FsSwU-14" value="#chapter" style="text;strokeColor=none;fillColor=none;align=left;verticalAlign=top;spacingLeft=4;spacingRight=4;overflow=hidden;rotatable=0;points=[[0,0.5],[1,0.5]];portConstraint=eastwest;" vertex="1" parent="kWz1B422EnsW_t5FsSwU-7">
          <mxGeometry y="182" width="320" height="26" as="geometry" />
        </mxCell>
        <mxCell id="kWz1B422EnsW_t5FsSwU-15" value="#requirement" style="text;strokeColor=none;fillColor=none;align=left;verticalAlign=top;spacingLeft=4;spacingRight=4;overflow=hidden;rotatable=0;points=[[0,0.5],[1,0.5]];portConstraint=eastwest;" vertex="1" parent="kWz1B422EnsW_t5FsSwU-7">
          <mxGeometry y="208" width="320" height="26" as="geometry" />
        </mxCell>
        <mxCell id="kWz1B422EnsW_t5FsSwU-16" value="#description" style="text;strokeColor=none;fillColor=none;align=left;verticalAlign=top;spacingLeft=4;spacingRight=4;overflow=hidden;rotatable=0;points=[[0,0.5],[1,0.5]];portConstraint=eastwest;" vertex="1" parent="kWz1B422EnsW_t5FsSwU-7">
          <mxGeometry y="234" width="320" height="26" as="geometry" />
        </mxCell>
        <mxCell id="kWz1B422EnsW_t5FsSwU-17" value="#target" style="text;strokeColor=none;fillColor=none;align=left;verticalAlign=top;spacingLeft=4;spacingRight=4;overflow=hidden;rotatable=0;points=[[0,0.5],[1,0.5]];portConstraint=eastwest;" vertex="1" parent="kWz1B422EnsW_t5FsSwU-7">
          <mxGeometry y="260" width="320" height="26" as="geometry" />
        </mxCell>
        <mxCell id="kWz1B422EnsW_t5FsSwU-18" value="#price" style="text;strokeColor=none;fillColor=none;align=left;verticalAlign=top;spacingLeft=4;spacingRight=4;overflow=hidden;rotatable=0;points=[[0,0.5],[1,0.5]];portConstraint=eastwest;" vertex="1" parent="kWz1B422EnsW_t5FsSwU-7">
          <mxGeometry y="286" width="320" height="26" as="geometry" />
        </mxCell>
        <mxCell id="kWz1B422EnsW_t5FsSwU-19" value="#promotion" style="text;strokeColor=#d79b00;fillColor=#ffe6cc;align=left;verticalAlign=top;spacingLeft=4;spacingRight=4;overflow=hidden;rotatable=0;points=[[0,0.5],[1,0.5]];portConstraint=eastwest;" vertex="1" parent="kWz1B422EnsW_t5FsSwU-7">
          <mxGeometry y="312" width="320" height="26" as="geometry" />
        </mxCell>
        <mxCell id="kWz1B422EnsW_t5FsSwU-20" value="#info" style="text;strokeColor=none;fillColor=none;align=left;verticalAlign=top;spacingLeft=4;spacingRight=4;overflow=hidden;rotatable=0;points=[[0,0.5],[1,0.5]];portConstraint=eastwest;" vertex="1" parent="kWz1B422EnsW_t5FsSwU-7">
          <mxGeometry y="338" width="320" height="26" as="geometry" />
        </mxCell>
        <mxCell id="kWz1B422EnsW_t5FsSwU-21" value="#categories" style="text;strokeColor=#9673a6;fillColor=#e1d5e7;align=left;verticalAlign=top;spacingLeft=4;spacingRight=4;overflow=hidden;rotatable=0;points=[[0,0.5],[1,0.5]];portConstraint=eastwest;" vertex="1" parent="kWz1B422EnsW_t5FsSwU-7">
          <mxGeometry y="364" width="320" height="26" as="geometry" />
        </mxCell>
        <mxCell id="kWz1B422EnsW_t5FsSwU-22" value="" style="line;strokeWidth=1;fillColor=none;align=left;verticalAlign=middle;spacingTop=-1;spacingLeft=3;spacingRight=3;rotatable=0;labelPosition=right;points=[];portConstraint=eastwest;strokeColor=inherit;" vertex="1" parent="kWz1B422EnsW_t5FsSwU-7">
          <mxGeometry y="390" width="320" height="8" as="geometry" />
        </mxCell>
        <mxCell id="kWz1B422EnsW_t5FsSwU-23" value="+check_course_review(course_id) : string&#xa;+calculate_promotion() : integer&#xa;+check_categories(course_id) : list&#xa;+check_student_course(student_id,course_id) : boolean&#xa;+search_name(keyword) : list" style="text;strokeColor=none;fillColor=none;align=left;verticalAlign=top;spacingLeft=4;spacingRight=4;overflow=hidden;rotatable=0;points=[[0,0.5],[1,0.5]];portConstraint=eastwest;" vertex="1" parent="kWz1B422EnsW_t5FsSwU-7">
          <mxGeometry y="398" width="320" height="82" as="geometry" />
        </mxCell>
        <mxCell id="kWz1B422EnsW_t5FsSwU-24" style="edgeStyle=orthogonalEdgeStyle;rounded=0;orthogonalLoop=1;jettySize=auto;html=1;endArrow=block;endFill=0;startArrow=none;startFill=0;" edge="1" parent="1" target="kWz1B422EnsW_t5FsSwU-45">
          <mxGeometry relative="1" as="geometry">
            <Array as="points">
              <mxPoint x="230" y="542" />
              <mxPoint x="230" y="542" />
            </Array>
            <mxPoint x="199.99999999999977" y="542" as="sourcePoint" />
          </mxGeometry>
        </mxCell>
        <mxCell id="kWz1B422EnsW_t5FsSwU-25" value="1" style="edgeLabel;html=1;align=center;verticalAlign=middle;resizable=0;points=[];" connectable="0" vertex="1" parent="kWz1B422EnsW_t5FsSwU-24">
          <mxGeometry x="0.5471" y="-1" relative="1" as="geometry">
            <mxPoint x="-1" as="offset" />
          </mxGeometry>
        </mxCell>
        <mxCell id="kWz1B422EnsW_t5FsSwU-26" value="0..1" style="edgeLabel;html=1;align=center;verticalAlign=middle;resizable=0;points=[];" connectable="0" vertex="1" parent="kWz1B422EnsW_t5FsSwU-24">
          <mxGeometry x="-0.5706" y="-2" relative="1" as="geometry">
            <mxPoint x="-1" y="1" as="offset" />
          </mxGeometry>
        </mxCell>
        <mxCell id="kWz1B422EnsW_t5FsSwU-27" value="create role" style="edgeLabel;html=1;align=center;verticalAlign=middle;resizable=0;points=[];" connectable="0" vertex="1" parent="kWz1B422EnsW_t5FsSwU-24">
          <mxGeometry x="0.0029" y="4" relative="1" as="geometry">
            <mxPoint y="-8" as="offset" />
          </mxGeometry>
        </mxCell>
        <mxCell id="kWz1B422EnsW_t5FsSwU-28" style="edgeStyle=orthogonalEdgeStyle;rounded=0;orthogonalLoop=1;jettySize=auto;html=1;dashed=1;endArrow=none;endFill=0;exitX=-0.006;exitY=0.339;exitDx=0;exitDy=0;exitPerimeter=0;" edge="1" parent="1" source="kWz1B422EnsW_t5FsSwU-251" target="kWz1B422EnsW_t5FsSwU-217">
          <mxGeometry relative="1" as="geometry">
            <mxPoint x="450" y="400" as="targetPoint" />
            <Array as="points">
              <mxPoint x="-220" y="529" />
              <mxPoint x="-220" y="110" />
            </Array>
            <mxPoint x="-2.2737367544323206e-13" y="529" as="sourcePoint" />
          </mxGeometry>
        </mxCell>
        <mxCell id="kWz1B422EnsW_t5FsSwU-29" style="edgeStyle=orthogonalEdgeStyle;rounded=0;orthogonalLoop=1;jettySize=auto;html=1;endArrow=block;endFill=0;startArrow=none;startFill=0;" edge="1" parent="1" source="kWz1B422EnsW_t5FsSwU-34" target="kWz1B422EnsW_t5FsSwU-38">
          <mxGeometry relative="1" as="geometry">
            <Array as="points">
              <mxPoint x="440" y="430" />
              <mxPoint x="440" y="430" />
            </Array>
            <mxPoint x="440" y="510" as="targetPoint" />
          </mxGeometry>
        </mxCell>
        <mxCell id="kWz1B422EnsW_t5FsSwU-30" value="1" style="edgeLabel;html=1;align=center;verticalAlign=middle;resizable=0;points=[];" connectable="0" vertex="1" parent="kWz1B422EnsW_t5FsSwU-29">
          <mxGeometry x="0.6966" y="-3" relative="1" as="geometry">
            <mxPoint as="offset" />
          </mxGeometry>
        </mxCell>
        <mxCell id="kWz1B422EnsW_t5FsSwU-31" value="0..1" style="edgeLabel;html=1;align=center;verticalAlign=middle;resizable=0;points=[];" connectable="0" vertex="1" parent="kWz1B422EnsW_t5FsSwU-29">
          <mxGeometry x="-0.764" relative="1" as="geometry">
            <mxPoint y="-1" as="offset" />
          </mxGeometry>
        </mxCell>
        <mxCell id="kWz1B422EnsW_t5FsSwU-32" value="create role" style="edgeLabel;html=1;align=center;verticalAlign=middle;resizable=0;points=[];" connectable="0" vertex="1" parent="kWz1B422EnsW_t5FsSwU-29">
          <mxGeometry x="0.0997" y="1" relative="1" as="geometry">
            <mxPoint as="offset" />
          </mxGeometry>
        </mxCell>
        <mxCell id="kWz1B422EnsW_t5FsSwU-33" style="edgeStyle=orthogonalEdgeStyle;rounded=0;orthogonalLoop=1;jettySize=auto;html=1;dashed=1;endArrow=none;endFill=0;" edge="1" parent="1" source="kWz1B422EnsW_t5FsSwU-34" target="kWz1B422EnsW_t5FsSwU-219">
          <mxGeometry relative="1" as="geometry">
            <Array as="points">
              <mxPoint x="800" y="127" />
            </Array>
          </mxGeometry>
        </mxCell>
        <mxCell id="kWz1B422EnsW_t5FsSwU-34" value="Student" style="swimlane;fontStyle=1;align=center;verticalAlign=top;childLayout=stackLayout;horizontal=1;startSize=26;horizontalStack=0;resizeParent=1;resizeParentMax=0;resizeLast=0;collapsible=1;marginBottom=0;fillColor=#d5e8d4;strokeColor=#82b366;" vertex="1" parent="1">
          <mxGeometry x="710" y="330" width="240" height="130" as="geometry" />
        </mxCell>
        <mxCell id="kWz1B422EnsW_t5FsSwU-35" value="-review" style="text;strokeColor=#d6b656;fillColor=#fff2cc;align=left;verticalAlign=top;spacingLeft=4;spacingRight=4;overflow=hidden;rotatable=0;points=[[0,0.5],[1,0.5]];portConstraint=eastwest;" vertex="1" parent="kWz1B422EnsW_t5FsSwU-34">
          <mxGeometry y="26" width="240" height="26" as="geometry" />
        </mxCell>
        <mxCell id="kWz1B422EnsW_t5FsSwU-36" value="" style="line;strokeWidth=1;fillColor=none;align=left;verticalAlign=middle;spacingTop=-1;spacingLeft=3;spacingRight=3;rotatable=0;labelPosition=right;points=[];portConstraint=eastwest;strokeColor=inherit;" vertex="1" parent="kWz1B422EnsW_t5FsSwU-34">
          <mxGeometry y="52" width="240" height="8" as="geometry" />
        </mxCell>
        <mxCell id="kWz1B422EnsW_t5FsSwU-37" value="+add_payment_method(method) : boolean&#xa;+request_history(status) : list&#xa;+ create_user(Account ) : boolean&#xa;" style="text;strokeColor=none;fillColor=none;align=left;verticalAlign=top;spacingLeft=4;spacingRight=4;overflow=hidden;rotatable=0;points=[[0,0.5],[1,0.5]];portConstraint=eastwest;" vertex="1" parent="kWz1B422EnsW_t5FsSwU-34">
          <mxGeometry y="60" width="240" height="70" as="geometry" />
        </mxCell>
        <mxCell id="kWz1B422EnsW_t5FsSwU-38" value="Account" style="swimlane;fontStyle=1;align=center;verticalAlign=top;childLayout=stackLayout;horizontal=1;startSize=26;horizontalStack=0;resizeParent=1;resizeParentMax=0;resizeLast=0;collapsible=1;marginBottom=0;fillColor=#f5f5f5;fontColor=#333333;strokeColor=#666666;" vertex="1" parent="1">
          <mxGeometry x="274" y="340" width="160" height="294" as="geometry">
            <mxRectangle x="640" y="80" width="90" height="30" as="alternateBounds" />
          </mxGeometry>
        </mxCell>
        <mxCell id="kWz1B422EnsW_t5FsSwU-39" value="#id" style="text;strokeColor=none;fillColor=none;align=left;verticalAlign=top;spacingLeft=4;spacingRight=4;overflow=hidden;rotatable=0;points=[[0,0.5],[1,0.5]];portConstraint=eastwest;" vertex="1" parent="kWz1B422EnsW_t5FsSwU-38">
          <mxGeometry y="26" width="160" height="26" as="geometry" />
        </mxCell>
        <mxCell id="kWz1B422EnsW_t5FsSwU-40" value="#name" style="text;strokeColor=none;fillColor=none;align=left;verticalAlign=top;spacingLeft=4;spacingRight=4;overflow=hidden;rotatable=0;points=[[0,0.5],[1,0.5]];portConstraint=eastwest;" vertex="1" parent="kWz1B422EnsW_t5FsSwU-38">
          <mxGeometry y="52" width="160" height="26" as="geometry" />
        </mxCell>
        <mxCell id="kWz1B422EnsW_t5FsSwU-41" value="#username" style="text;strokeColor=none;fillColor=none;align=left;verticalAlign=top;spacingLeft=4;spacingRight=4;overflow=hidden;rotatable=0;points=[[0,0.5],[1,0.5]];portConstraint=eastwest;" vertex="1" parent="kWz1B422EnsW_t5FsSwU-38">
          <mxGeometry y="78" width="160" height="26" as="geometry" />
        </mxCell>
        <mxCell id="kWz1B422EnsW_t5FsSwU-42" value="#password" style="text;strokeColor=none;fillColor=none;align=left;verticalAlign=top;spacingLeft=4;spacingRight=4;overflow=hidden;rotatable=0;points=[[0,0.5],[1,0.5]];portConstraint=eastwest;" vertex="1" parent="kWz1B422EnsW_t5FsSwU-38">
          <mxGeometry y="104" width="160" height="26" as="geometry" />
        </mxCell>
        <mxCell id="kWz1B422EnsW_t5FsSwU-43" value="#language" style="text;strokeColor=none;fillColor=none;align=left;verticalAlign=top;spacingLeft=4;spacingRight=4;overflow=hidden;rotatable=0;points=[[0,0.5],[1,0.5]];portConstraint=eastwest;" vertex="1" parent="kWz1B422EnsW_t5FsSwU-38">
          <mxGeometry y="130" width="160" height="26" as="geometry" />
        </mxCell>
        <mxCell id="kWz1B422EnsW_t5FsSwU-44" value="#email" style="text;strokeColor=none;fillColor=none;align=left;verticalAlign=top;spacingLeft=4;spacingRight=4;overflow=hidden;rotatable=0;points=[[0,0.5],[1,0.5]];portConstraint=eastwest;" vertex="1" parent="kWz1B422EnsW_t5FsSwU-38">
          <mxGeometry y="156" width="160" height="26" as="geometry" />
        </mxCell>
        <mxCell id="kWz1B422EnsW_t5FsSwU-45" value="#role" style="text;strokeColor=#6c8ebf;fillColor=#dae8fc;align=left;verticalAlign=top;spacingLeft=4;spacingRight=4;overflow=hidden;rotatable=0;points=[[0,0.5],[1,0.5]];portConstraint=eastwest;gradientColor=#d6e8d5;gradientDirection=east;" vertex="1" parent="kWz1B422EnsW_t5FsSwU-38">
          <mxGeometry y="182" width="160" height="26" as="geometry" />
        </mxCell>
        <mxCell id="kWz1B422EnsW_t5FsSwU-46" value="#about" style="text;strokeColor=none;fillColor=none;align=left;verticalAlign=top;spacingLeft=4;spacingRight=4;overflow=hidden;rotatable=0;points=[[0,0.5],[1,0.5]];portConstraint=eastwest;" vertex="1" parent="kWz1B422EnsW_t5FsSwU-38">
          <mxGeometry y="208" width="160" height="26" as="geometry" />
        </mxCell>
        <mxCell id="kWz1B422EnsW_t5FsSwU-47" value="#active" style="text;strokeColor=none;fillColor=none;align=left;verticalAlign=top;spacingLeft=4;spacingRight=4;overflow=hidden;rotatable=0;points=[[0,0.5],[1,0.5]];portConstraint=eastwest;" vertex="1" parent="kWz1B422EnsW_t5FsSwU-38">
          <mxGeometry y="234" width="160" height="26" as="geometry" />
        </mxCell>
        <mxCell id="kWz1B422EnsW_t5FsSwU-48" value="" style="line;strokeWidth=1;fillColor=none;align=left;verticalAlign=middle;spacingTop=-1;spacingLeft=3;spacingRight=3;rotatable=0;labelPosition=right;points=[];portConstraint=eastwest;strokeColor=inherit;" vertex="1" parent="kWz1B422EnsW_t5FsSwU-38">
          <mxGeometry y="260" width="160" height="8" as="geometry" />
        </mxCell>
        <mxCell id="kWz1B422EnsW_t5FsSwU-49" value="+ method(type): type" style="text;strokeColor=none;fillColor=none;align=left;verticalAlign=top;spacingLeft=4;spacingRight=4;overflow=hidden;rotatable=0;points=[[0,0.5],[1,0.5]];portConstraint=eastwest;" vertex="1" parent="kWz1B422EnsW_t5FsSwU-38">
          <mxGeometry y="268" width="160" height="26" as="geometry" />
        </mxCell>
        <mxCell id="kWz1B422EnsW_t5FsSwU-50" style="edgeStyle=orthogonalEdgeStyle;rounded=0;orthogonalLoop=1;jettySize=auto;html=1;startArrow=classic;startFill=1;endArrow=none;endFill=0;" edge="1" parent="1" source="kWz1B422EnsW_t5FsSwU-58" target="kWz1B422EnsW_t5FsSwU-34">
          <mxGeometry relative="1" as="geometry">
            <Array as="points">
              <mxPoint x="720" y="530" />
              <mxPoint x="720" y="530" />
            </Array>
          </mxGeometry>
        </mxCell>
        <mxCell id="kWz1B422EnsW_t5FsSwU-51" value="add review" style="edgeLabel;html=1;align=center;verticalAlign=middle;resizable=0;points=[];" connectable="0" vertex="1" parent="kWz1B422EnsW_t5FsSwU-50">
          <mxGeometry x="0.1562" relative="1" as="geometry">
            <mxPoint y="32" as="offset" />
          </mxGeometry>
        </mxCell>
        <mxCell id="kWz1B422EnsW_t5FsSwU-52" value="0..*" style="edgeLabel;html=1;align=center;verticalAlign=middle;resizable=0;points=[];" connectable="0" vertex="1" parent="kWz1B422EnsW_t5FsSwU-50">
          <mxGeometry x="-0.6638" y="1" relative="1" as="geometry">
            <mxPoint as="offset" />
          </mxGeometry>
        </mxCell>
        <mxCell id="kWz1B422EnsW_t5FsSwU-53" value="1" style="edgeLabel;html=1;align=center;verticalAlign=middle;resizable=0;points=[];" connectable="0" vertex="1" parent="kWz1B422EnsW_t5FsSwU-50">
          <mxGeometry x="0.9135" y="-2" relative="1" as="geometry">
            <mxPoint y="1" as="offset" />
          </mxGeometry>
        </mxCell>
        <mxCell id="kWz1B422EnsW_t5FsSwU-54" style="edgeStyle=orthogonalEdgeStyle;rounded=0;orthogonalLoop=1;jettySize=auto;html=1;startArrow=none;startFill=0;endArrow=diamondThin;endFill=1;" edge="1" parent="1" source="kWz1B422EnsW_t5FsSwU-58" target="kWz1B422EnsW_t5FsSwU-7">
          <mxGeometry relative="1" as="geometry">
            <Array as="points">
              <mxPoint x="280" y="778" />
              <mxPoint x="280" y="778" />
            </Array>
          </mxGeometry>
        </mxCell>
        <mxCell id="kWz1B422EnsW_t5FsSwU-55" value="0..*" style="edgeLabel;html=1;align=center;verticalAlign=middle;resizable=0;points=[];" connectable="0" vertex="1" parent="kWz1B422EnsW_t5FsSwU-54">
          <mxGeometry x="-0.7711" y="2" relative="1" as="geometry">
            <mxPoint x="-316" y="-3" as="offset" />
          </mxGeometry>
        </mxCell>
        <mxCell id="kWz1B422EnsW_t5FsSwU-56" value="has review" style="edgeLabel;html=1;align=center;verticalAlign=middle;resizable=0;points=[];" connectable="0" vertex="1" parent="kWz1B422EnsW_t5FsSwU-54">
          <mxGeometry x="-0.0306" y="1" relative="1" as="geometry">
            <mxPoint as="offset" />
          </mxGeometry>
        </mxCell>
        <mxCell id="kWz1B422EnsW_t5FsSwU-57" value="1" style="edgeLabel;html=1;align=center;verticalAlign=middle;resizable=0;points=[];" connectable="0" vertex="1" parent="kWz1B422EnsW_t5FsSwU-54">
          <mxGeometry x="-0.8925" y="3" relative="1" as="geometry">
            <mxPoint as="offset" />
          </mxGeometry>
        </mxCell>
        <mxCell id="kWz1B422EnsW_t5FsSwU-58" value="Review" style="swimlane;fontStyle=1;align=center;verticalAlign=top;childLayout=stackLayout;horizontal=1;startSize=26;horizontalStack=0;resizeParent=1;resizeParentMax=0;resizeLast=0;collapsible=1;marginBottom=0;fillColor=#fff2cc;strokeColor=#d6b656;" vertex="1" parent="1">
          <mxGeometry x="620" y="730" width="200" height="180" as="geometry" />
        </mxCell>
        <mxCell id="kWz1B422EnsW_t5FsSwU-59" value="- by" style="text;strokeColor=none;fillColor=none;align=left;verticalAlign=top;spacingLeft=4;spacingRight=4;overflow=hidden;rotatable=0;points=[[0,0.5],[1,0.5]];portConstraint=eastwest;" vertex="1" parent="kWz1B422EnsW_t5FsSwU-58">
          <mxGeometry y="26" width="200" height="26" as="geometry" />
        </mxCell>
        <mxCell id="kWz1B422EnsW_t5FsSwU-60" value="-rating" style="text;strokeColor=none;fillColor=none;align=left;verticalAlign=top;spacingLeft=4;spacingRight=4;overflow=hidden;rotatable=0;points=[[0,0.5],[1,0.5]];portConstraint=eastwest;" vertex="1" parent="kWz1B422EnsW_t5FsSwU-58">
          <mxGeometry y="52" width="200" height="26" as="geometry" />
        </mxCell>
        <mxCell id="kWz1B422EnsW_t5FsSwU-61" value="-course_id" style="text;strokeColor=none;fillColor=none;align=left;verticalAlign=top;spacingLeft=4;spacingRight=4;overflow=hidden;rotatable=0;points=[[0,0.5],[1,0.5]];portConstraint=eastwest;" vertex="1" parent="kWz1B422EnsW_t5FsSwU-58">
          <mxGeometry y="78" width="200" height="26" as="geometry" />
        </mxCell>
        <mxCell id="kWz1B422EnsW_t5FsSwU-62" value="-description" style="text;strokeColor=none;fillColor=none;align=left;verticalAlign=top;spacingLeft=4;spacingRight=4;overflow=hidden;rotatable=0;points=[[0,0.5],[1,0.5]];portConstraint=eastwest;" vertex="1" parent="kWz1B422EnsW_t5FsSwU-58">
          <mxGeometry y="104" width="200" height="26" as="geometry" />
        </mxCell>
        <mxCell id="kWz1B422EnsW_t5FsSwU-63" value="" style="line;strokeWidth=1;fillColor=none;align=left;verticalAlign=middle;spacingTop=-1;spacingLeft=3;spacingRight=3;rotatable=0;labelPosition=right;points=[];portConstraint=eastwest;strokeColor=inherit;" vertex="1" parent="kWz1B422EnsW_t5FsSwU-58">
          <mxGeometry y="130" width="200" height="8" as="geometry" />
        </mxCell>
        <mxCell id="kWz1B422EnsW_t5FsSwU-64" value="+collect_all_review(id) : list&#xa;+add_review_to_course() : boolean" style="text;strokeColor=none;fillColor=none;align=left;verticalAlign=top;spacingLeft=4;spacingRight=4;overflow=hidden;rotatable=0;points=[[0,0.5],[1,0.5]];portConstraint=eastwest;" vertex="1" parent="kWz1B422EnsW_t5FsSwU-58">
          <mxGeometry y="138" width="200" height="42" as="geometry" />
        </mxCell>
        <mxCell id="kWz1B422EnsW_t5FsSwU-65" style="edgeStyle=orthogonalEdgeStyle;rounded=0;orthogonalLoop=1;jettySize=auto;html=1;startArrow=none;startFill=0;endArrow=diamondThin;endFill=0;exitX=0.5;exitY=0;exitDx=0;exitDy=0;endSize=14;startSize=14;entryX=0;entryY=0.5;entryDx=0;entryDy=0;" edge="1" parent="1" source="kWz1B422EnsW_t5FsSwU-69" target="kWz1B422EnsW_t5FsSwU-21">
          <mxGeometry relative="1" as="geometry">
            <Array as="points">
              <mxPoint x="-270" y="1063" />
            </Array>
            <mxPoint y="1090" as="targetPoint" />
          </mxGeometry>
        </mxCell>
        <mxCell id="kWz1B422EnsW_t5FsSwU-66" value="1..*" style="edgeLabel;html=1;align=center;verticalAlign=middle;resizable=0;points=[];" connectable="0" vertex="1" parent="kWz1B422EnsW_t5FsSwU-65">
          <mxGeometry x="0.7206" y="-1" relative="1" as="geometry">
            <mxPoint as="offset" />
          </mxGeometry>
        </mxCell>
        <mxCell id="kWz1B422EnsW_t5FsSwU-67" value="1" style="edgeLabel;html=1;align=center;verticalAlign=middle;resizable=0;points=[];" connectable="0" vertex="1" parent="kWz1B422EnsW_t5FsSwU-65">
          <mxGeometry x="-0.8239" y="2" relative="1" as="geometry">
            <mxPoint y="1" as="offset" />
          </mxGeometry>
        </mxCell>
        <mxCell id="kWz1B422EnsW_t5FsSwU-68" value="classify" style="edgeLabel;html=1;align=center;verticalAlign=middle;resizable=0;points=[];" connectable="0" vertex="1" parent="kWz1B422EnsW_t5FsSwU-65">
          <mxGeometry x="0.0207" y="-1" relative="1" as="geometry">
            <mxPoint as="offset" />
          </mxGeometry>
        </mxCell>
        <mxCell id="kWz1B422EnsW_t5FsSwU-69" value="Categories" style="swimlane;fontStyle=1;align=center;verticalAlign=top;childLayout=stackLayout;horizontal=1;startSize=26;horizontalStack=0;resizeParent=1;resizeParentMax=0;resizeLast=0;collapsible=1;marginBottom=0;fillColor=#e1d5e7;strokeColor=#9673a6;" vertex="1" parent="1">
          <mxGeometry x="-350" y="1130.21" width="210" height="130" as="geometry" />
        </mxCell>
        <mxCell id="kWz1B422EnsW_t5FsSwU-70" value="-id" style="text;strokeColor=none;fillColor=none;align=left;verticalAlign=top;spacingLeft=4;spacingRight=4;overflow=hidden;rotatable=0;points=[[0,0.5],[1,0.5]];portConstraint=eastwest;" vertex="1" parent="kWz1B422EnsW_t5FsSwU-69">
          <mxGeometry y="26" width="210" height="26" as="geometry" />
        </mxCell>
        <mxCell id="kWz1B422EnsW_t5FsSwU-71" value="-name" style="text;strokeColor=none;fillColor=none;align=left;verticalAlign=top;spacingLeft=4;spacingRight=4;overflow=hidden;rotatable=0;points=[[0,0.5],[1,0.5]];portConstraint=eastwest;" vertex="1" parent="kWz1B422EnsW_t5FsSwU-69">
          <mxGeometry y="52" width="210" height="26" as="geometry" />
        </mxCell>
        <mxCell id="kWz1B422EnsW_t5FsSwU-72" value="" style="line;strokeWidth=1;fillColor=none;align=left;verticalAlign=middle;spacingTop=-1;spacingLeft=3;spacingRight=3;rotatable=0;labelPosition=right;points=[];portConstraint=eastwest;strokeColor=inherit;" vertex="1" parent="kWz1B422EnsW_t5FsSwU-69">
          <mxGeometry y="78" width="210" height="8" as="geometry" />
        </mxCell>
        <mxCell id="kWz1B422EnsW_t5FsSwU-73" value="+request_catagories() : list&#xa;+search_categories(keyword) : list" style="text;strokeColor=none;fillColor=none;align=left;verticalAlign=top;spacingLeft=4;spacingRight=4;overflow=hidden;rotatable=0;points=[[0,0.5],[1,0.5]];portConstraint=eastwest;" vertex="1" parent="kWz1B422EnsW_t5FsSwU-69">
          <mxGeometry y="86" width="210" height="44" as="geometry" />
        </mxCell>
        <mxCell id="kWz1B422EnsW_t5FsSwU-74" style="edgeStyle=orthogonalEdgeStyle;rounded=0;orthogonalLoop=1;jettySize=auto;html=1;startArrow=none;startFill=0;endArrow=diamondThin;endFill=1;entryX=0.895;entryY=1.068;entryDx=0;entryDy=0;entryPerimeter=0;" edge="1" parent="1" source="kWz1B422EnsW_t5FsSwU-80" target="kWz1B422EnsW_t5FsSwU-37">
          <mxGeometry relative="1" as="geometry">
            <Array as="points">
              <mxPoint x="1150" y="566" />
              <mxPoint x="925" y="566" />
            </Array>
            <mxPoint x="730" y="566" as="targetPoint" />
          </mxGeometry>
        </mxCell>
        <mxCell id="kWz1B422EnsW_t5FsSwU-75" value="1" style="edgeLabel;html=1;align=center;verticalAlign=middle;resizable=0;points=[];" connectable="0" vertex="1" parent="kWz1B422EnsW_t5FsSwU-74">
          <mxGeometry x="-0.9313" y="-2" relative="1" as="geometry">
            <mxPoint as="offset" />
          </mxGeometry>
        </mxCell>
        <mxCell id="kWz1B422EnsW_t5FsSwU-76" value="1" style="edgeLabel;html=1;align=center;verticalAlign=middle;resizable=0;points=[];" connectable="0" vertex="1" parent="kWz1B422EnsW_t5FsSwU-74">
          <mxGeometry x="0.9235" relative="1" as="geometry">
            <mxPoint as="offset" />
          </mxGeometry>
        </mxCell>
        <mxCell id="kWz1B422EnsW_t5FsSwU-77" value="create cart" style="edgeLabel;html=1;align=center;verticalAlign=middle;resizable=0;points=[];" connectable="0" vertex="1" parent="kWz1B422EnsW_t5FsSwU-74">
          <mxGeometry x="0.0542" y="-3" relative="1" as="geometry">
            <mxPoint as="offset" />
          </mxGeometry>
        </mxCell>
        <mxCell id="kWz1B422EnsW_t5FsSwU-78" style="edgeStyle=orthogonalEdgeStyle;rounded=0;orthogonalLoop=1;jettySize=auto;html=1;entryX=0.998;entryY=0.923;entryDx=0;entryDy=0;entryPerimeter=0;dashed=1;endArrow=block;endFill=0;" edge="1" parent="1" source="kWz1B422EnsW_t5FsSwU-80" target="kWz1B422EnsW_t5FsSwU-139">
          <mxGeometry relative="1" as="geometry" />
        </mxCell>
        <mxCell id="kWz1B422EnsW_t5FsSwU-79" value="check student course" style="edgeLabel;html=1;align=center;verticalAlign=middle;resizable=0;points=[];" connectable="0" vertex="1" parent="kWz1B422EnsW_t5FsSwU-78">
          <mxGeometry x="-0.1644" y="-3" relative="1" as="geometry">
            <mxPoint x="82" y="1" as="offset" />
          </mxGeometry>
        </mxCell>
        <mxCell id="kWz1B422EnsW_t5FsSwU-80" value="Cart" style="swimlane;fontStyle=1;align=center;verticalAlign=top;childLayout=stackLayout;horizontal=1;startSize=26;horizontalStack=0;resizeParent=1;resizeParentMax=0;resizeLast=0;collapsible=1;marginBottom=0;fillColor=#b1ddf0;strokeColor=#10739e;" vertex="1" parent="1">
          <mxGeometry x="1040" y="636" width="210" height="168" as="geometry" />
        </mxCell>
        <mxCell id="kWz1B422EnsW_t5FsSwU-81" value="-price&#xa;" style="text;strokeColor=#314354;fillColor=#647687;align=left;verticalAlign=top;spacingLeft=4;spacingRight=4;overflow=hidden;rotatable=0;points=[[0,0.5],[1,0.5]];portConstraint=eastwest;fontColor=#ffffff;" vertex="1" parent="kWz1B422EnsW_t5FsSwU-80">
          <mxGeometry y="26" width="210" height="26" as="geometry" />
        </mxCell>
        <mxCell id="kWz1B422EnsW_t5FsSwU-82" value="-net_promotion" style="text;strokeColor=#314354;fillColor=#647687;align=left;verticalAlign=top;spacingLeft=4;spacingRight=4;overflow=hidden;rotatable=0;points=[[0,0.5],[1,0.5]];portConstraint=eastwest;fontColor=#ffffff;" vertex="1" parent="kWz1B422EnsW_t5FsSwU-80">
          <mxGeometry y="52" width="210" height="26" as="geometry" />
        </mxCell>
        <mxCell id="kWz1B422EnsW_t5FsSwU-83" value="-net_coupon" style="text;strokeColor=#314354;fillColor=#647687;align=left;verticalAlign=top;spacingLeft=4;spacingRight=4;overflow=hidden;rotatable=0;points=[[0,0.5],[1,0.5]];portConstraint=eastwest;fontColor=#ffffff;" vertex="1" parent="kWz1B422EnsW_t5FsSwU-80">
          <mxGeometry y="78" width="210" height="26" as="geometry" />
        </mxCell>
        <mxCell id="kWz1B422EnsW_t5FsSwU-84" value="-net_price&#xa;" style="text;strokeColor=#314354;fillColor=#647687;align=left;verticalAlign=top;spacingLeft=4;spacingRight=4;overflow=hidden;rotatable=0;points=[[0,0.5],[1,0.5]];portConstraint=eastwest;fontColor=#ffffff;" vertex="1" parent="kWz1B422EnsW_t5FsSwU-80">
          <mxGeometry y="104" width="210" height="26" as="geometry" />
        </mxCell>
        <mxCell id="kWz1B422EnsW_t5FsSwU-85" value="" style="line;strokeWidth=1;fillColor=none;align=left;verticalAlign=middle;spacingTop=-1;spacingLeft=3;spacingRight=3;rotatable=0;labelPosition=right;points=[];portConstraint=eastwest;strokeColor=inherit;" vertex="1" parent="kWz1B422EnsW_t5FsSwU-80">
          <mxGeometry y="130" width="210" height="8" as="geometry" />
        </mxCell>
        <mxCell id="kWz1B422EnsW_t5FsSwU-86" value="+check_condition(coupon) : boolean" style="text;strokeColor=none;fillColor=none;align=left;verticalAlign=top;spacingLeft=4;spacingRight=4;overflow=hidden;rotatable=0;points=[[0,0.5],[1,0.5]];portConstraint=eastwest;" vertex="1" parent="kWz1B422EnsW_t5FsSwU-80">
          <mxGeometry y="138" width="210" height="30" as="geometry" />
        </mxCell>
        <mxCell id="kWz1B422EnsW_t5FsSwU-87" style="edgeStyle=orthogonalEdgeStyle;rounded=0;orthogonalLoop=1;jettySize=auto;html=1;startArrow=none;startFill=0;endArrow=none;endFill=0;entryX=1;entryY=0.5;entryDx=0;entryDy=0;" edge="1" parent="1" source="kWz1B422EnsW_t5FsSwU-91" target="kWz1B422EnsW_t5FsSwU-86">
          <mxGeometry relative="1" as="geometry">
            <mxPoint x="1171" y="867.71" as="targetPoint" />
            <Array as="points">
              <mxPoint x="1300" y="760" />
              <mxPoint x="1260" y="760" />
              <mxPoint x="1260" y="789" />
            </Array>
          </mxGeometry>
        </mxCell>
        <mxCell id="kWz1B422EnsW_t5FsSwU-88" value="1..*" style="edgeLabel;html=1;align=center;verticalAlign=middle;resizable=0;points=[];" connectable="0" vertex="1" parent="kWz1B422EnsW_t5FsSwU-87">
          <mxGeometry x="-0.8018" y="-1" relative="1" as="geometry">
            <mxPoint as="offset" />
          </mxGeometry>
        </mxCell>
        <mxCell id="kWz1B422EnsW_t5FsSwU-89" value="1" style="edgeLabel;html=1;align=center;verticalAlign=middle;resizable=0;points=[];" connectable="0" vertex="1" parent="kWz1B422EnsW_t5FsSwU-87">
          <mxGeometry x="0.7672" y="3" relative="1" as="geometry">
            <mxPoint x="1" as="offset" />
          </mxGeometry>
        </mxCell>
        <mxCell id="kWz1B422EnsW_t5FsSwU-90" value="make payment" style="edgeLabel;html=1;align=center;verticalAlign=middle;resizable=0;points=[];" connectable="0" vertex="1" parent="kWz1B422EnsW_t5FsSwU-87">
          <mxGeometry x="-0.1897" y="-2" relative="1" as="geometry">
            <mxPoint as="offset" />
          </mxGeometry>
        </mxCell>
        <mxCell id="kWz1B422EnsW_t5FsSwU-91" value="Payment" style="swimlane;fontStyle=1;align=center;verticalAlign=top;childLayout=stackLayout;horizontal=1;startSize=26;horizontalStack=0;resizeParent=1;resizeParentMax=0;resizeLast=0;collapsible=1;marginBottom=0;fillColor=#d80073;fontColor=#ffffff;strokeColor=#A50040;" vertex="1" parent="1">
          <mxGeometry x="1190" y="1097.71" width="250" height="130" as="geometry" />
        </mxCell>
        <mxCell id="kWz1B422EnsW_t5FsSwU-92" value="-country" style="text;strokeColor=none;fillColor=none;align=left;verticalAlign=top;spacingLeft=4;spacingRight=4;overflow=hidden;rotatable=0;points=[[0,0.5],[1,0.5]];portConstraint=eastwest;" vertex="1" parent="kWz1B422EnsW_t5FsSwU-91">
          <mxGeometry y="26" width="250" height="26" as="geometry" />
        </mxCell>
        <mxCell id="kWz1B422EnsW_t5FsSwU-93" value="-method" style="text;strokeColor=none;fillColor=none;align=left;verticalAlign=top;spacingLeft=4;spacingRight=4;overflow=hidden;rotatable=0;points=[[0,0.5],[1,0.5]];portConstraint=eastwest;" vertex="1" parent="kWz1B422EnsW_t5FsSwU-91">
          <mxGeometry y="52" width="250" height="26" as="geometry" />
        </mxCell>
        <mxCell id="kWz1B422EnsW_t5FsSwU-94" value="" style="line;strokeWidth=1;fillColor=none;align=left;verticalAlign=middle;spacingTop=-1;spacingLeft=3;spacingRight=3;rotatable=0;labelPosition=right;points=[];portConstraint=eastwest;strokeColor=inherit;" vertex="1" parent="kWz1B422EnsW_t5FsSwU-91">
          <mxGeometry y="78" width="250" height="8" as="geometry" />
        </mxCell>
        <mxCell id="kWz1B422EnsW_t5FsSwU-95" value="+create_payment_method(method): boolean" style="text;strokeColor=none;fillColor=none;align=left;verticalAlign=top;spacingLeft=4;spacingRight=4;overflow=hidden;rotatable=0;points=[[0,0.5],[1,0.5]];portConstraint=eastwest;" vertex="1" parent="kWz1B422EnsW_t5FsSwU-91">
          <mxGeometry y="86" width="250" height="44" as="geometry" />
        </mxCell>
        <mxCell id="kWz1B422EnsW_t5FsSwU-96" value="Promotion" style="swimlane;fontStyle=1;align=center;verticalAlign=top;childLayout=stackLayout;horizontal=1;startSize=26;horizontalStack=0;resizeParent=1;resizeParentMax=0;resizeLast=0;collapsible=1;marginBottom=0;fillColor=#ffe6cc;strokeColor=#d79b00;" vertex="1" parent="1">
          <mxGeometry x="-380" y="843" width="160" height="164" as="geometry" />
        </mxCell>
        <mxCell id="kWz1B422EnsW_t5FsSwU-97" value="-percent" style="text;strokeColor=none;fillColor=none;align=left;verticalAlign=top;spacingLeft=4;spacingRight=4;overflow=hidden;rotatable=0;points=[[0,0.5],[1,0.5]];portConstraint=eastwest;" vertex="1" parent="kWz1B422EnsW_t5FsSwU-96">
          <mxGeometry y="26" width="160" height="26" as="geometry" />
        </mxCell>
        <mxCell id="kWz1B422EnsW_t5FsSwU-98" value="-start_date" style="text;strokeColor=none;fillColor=none;align=left;verticalAlign=top;spacingLeft=4;spacingRight=4;overflow=hidden;rotatable=0;points=[[0,0.5],[1,0.5]];portConstraint=eastwest;" vertex="1" parent="kWz1B422EnsW_t5FsSwU-96">
          <mxGeometry y="52" width="160" height="26" as="geometry" />
        </mxCell>
        <mxCell id="kWz1B422EnsW_t5FsSwU-99" value="-end_date" style="text;strokeColor=none;fillColor=none;align=left;verticalAlign=top;spacingLeft=4;spacingRight=4;overflow=hidden;rotatable=0;points=[[0,0.5],[1,0.5]];portConstraint=eastwest;" vertex="1" parent="kWz1B422EnsW_t5FsSwU-96">
          <mxGeometry y="78" width="160" height="26" as="geometry" />
        </mxCell>
        <mxCell id="kWz1B422EnsW_t5FsSwU-100" value="-net" style="text;strokeColor=none;fillColor=none;align=left;verticalAlign=top;spacingLeft=4;spacingRight=4;overflow=hidden;rotatable=0;points=[[0,0.5],[1,0.5]];portConstraint=eastwest;" vertex="1" parent="kWz1B422EnsW_t5FsSwU-96">
          <mxGeometry y="104" width="160" height="26" as="geometry" />
        </mxCell>
        <mxCell id="kWz1B422EnsW_t5FsSwU-101" value="" style="line;strokeWidth=1;fillColor=none;align=left;verticalAlign=middle;spacingTop=-1;spacingLeft=3;spacingRight=3;rotatable=0;labelPosition=right;points=[];portConstraint=eastwest;strokeColor=inherit;" vertex="1" parent="kWz1B422EnsW_t5FsSwU-96">
          <mxGeometry y="130" width="160" height="8" as="geometry" />
        </mxCell>
        <mxCell id="kWz1B422EnsW_t5FsSwU-102" value="+ method(type): type" style="text;strokeColor=none;fillColor=none;align=left;verticalAlign=top;spacingLeft=4;spacingRight=4;overflow=hidden;rotatable=0;points=[[0,0.5],[1,0.5]];portConstraint=eastwest;" vertex="1" parent="kWz1B422EnsW_t5FsSwU-96">
          <mxGeometry y="138" width="160" height="26" as="geometry" />
        </mxCell>
        <mxCell id="kWz1B422EnsW_t5FsSwU-103" style="edgeStyle=orthogonalEdgeStyle;rounded=0;orthogonalLoop=1;jettySize=auto;html=1;entryX=0.558;entryY=-0.004;entryDx=0;entryDy=0;entryPerimeter=0;startArrow=diamondThin;startFill=1;endArrow=none;endFill=0;" edge="1" parent="1" source="kWz1B422EnsW_t5FsSwU-34" target="kWz1B422EnsW_t5FsSwU-136">
          <mxGeometry relative="1" as="geometry">
            <mxPoint x="490" y="587" as="sourcePoint" />
            <Array as="points">
              <mxPoint x="500" y="395" />
              <mxPoint x="500" y="843" />
            </Array>
          </mxGeometry>
        </mxCell>
        <mxCell id="kWz1B422EnsW_t5FsSwU-104" value="0..*" style="edgeLabel;html=1;align=center;verticalAlign=middle;resizable=0;points=[];" connectable="0" vertex="1" parent="kWz1B422EnsW_t5FsSwU-103">
          <mxGeometry x="0.8963" y="-1" relative="1" as="geometry">
            <mxPoint x="-16" y="-11" as="offset" />
          </mxGeometry>
        </mxCell>
        <mxCell id="kWz1B422EnsW_t5FsSwU-105" value="1" style="edgeLabel;html=1;align=center;verticalAlign=middle;resizable=0;points=[];" connectable="0" vertex="1" parent="kWz1B422EnsW_t5FsSwU-103">
          <mxGeometry x="-0.656" relative="1" as="geometry">
            <mxPoint as="offset" />
          </mxGeometry>
        </mxCell>
        <mxCell id="kWz1B422EnsW_t5FsSwU-106" value="has course" style="edgeLabel;html=1;align=center;verticalAlign=middle;resizable=0;points=[];" connectable="0" vertex="1" parent="kWz1B422EnsW_t5FsSwU-103">
          <mxGeometry x="0.1209" y="1" relative="1" as="geometry">
            <mxPoint as="offset" />
          </mxGeometry>
        </mxCell>
        <mxCell id="kWz1B422EnsW_t5FsSwU-107" style="edgeStyle=orthogonalEdgeStyle;rounded=0;orthogonalLoop=1;jettySize=auto;html=1;entryX=0.993;entryY=0.107;entryDx=0;entryDy=0;entryPerimeter=0;startArrow=none;startFill=0;endArrow=classic;endFill=1;" edge="1" parent="1" source="kWz1B422EnsW_t5FsSwU-19" target="kWz1B422EnsW_t5FsSwU-96">
          <mxGeometry relative="1" as="geometry">
            <Array as="points" />
          </mxGeometry>
        </mxCell>
        <mxCell id="kWz1B422EnsW_t5FsSwU-108" value="1" style="edgeLabel;html=1;align=center;verticalAlign=middle;resizable=0;points=[];" connectable="0" vertex="1" parent="kWz1B422EnsW_t5FsSwU-107">
          <mxGeometry x="0.7367" relative="1" as="geometry">
            <mxPoint as="offset" />
          </mxGeometry>
        </mxCell>
        <mxCell id="kWz1B422EnsW_t5FsSwU-109" value="1" style="edgeLabel;html=1;align=center;verticalAlign=middle;resizable=0;points=[];" connectable="0" vertex="1" parent="kWz1B422EnsW_t5FsSwU-107">
          <mxGeometry x="-0.8018" relative="1" as="geometry">
            <mxPoint as="offset" />
          </mxGeometry>
        </mxCell>
        <mxCell id="kWz1B422EnsW_t5FsSwU-110" value="has promotion" style="edgeLabel;html=1;align=center;verticalAlign=middle;resizable=0;points=[];" connectable="0" vertex="1" parent="kWz1B422EnsW_t5FsSwU-107">
          <mxGeometry x="-0.0879" y="-4" relative="1" as="geometry">
            <mxPoint x="36" y="57" as="offset" />
          </mxGeometry>
        </mxCell>
        <mxCell id="kWz1B422EnsW_t5FsSwU-111" style="edgeStyle=orthogonalEdgeStyle;rounded=0;orthogonalLoop=1;jettySize=auto;html=1;startArrow=classic;startFill=1;endArrow=none;endFill=0;exitX=1;exitY=0.165;exitDx=0;exitDy=0;exitPerimeter=0;entryX=-0.004;entryY=0.029;entryDx=0;entryDy=0;entryPerimeter=0;" edge="1" parent="1" target="kWz1B422EnsW_t5FsSwU-251">
          <mxGeometry relative="1" as="geometry">
            <Array as="points">
              <mxPoint x="-150" y="453" />
              <mxPoint x="-150" y="490" />
              <mxPoint x="-11" y="490" />
            </Array>
            <mxPoint y="490" as="targetPoint" />
            <mxPoint x="-335" y="452.87" as="sourcePoint" />
          </mxGeometry>
        </mxCell>
        <mxCell id="kWz1B422EnsW_t5FsSwU-112" value="0..*" style="edgeLabel;html=1;align=center;verticalAlign=middle;resizable=0;points=[];" connectable="0" vertex="1" parent="kWz1B422EnsW_t5FsSwU-111">
          <mxGeometry x="-0.7393" y="-1" relative="1" as="geometry">
            <mxPoint as="offset" />
          </mxGeometry>
        </mxCell>
        <mxCell id="kWz1B422EnsW_t5FsSwU-113" value="1" style="edgeLabel;html=1;align=center;verticalAlign=middle;resizable=0;points=[];" connectable="0" vertex="1" parent="kWz1B422EnsW_t5FsSwU-111">
          <mxGeometry x="0.8793" y="1" relative="1" as="geometry">
            <mxPoint as="offset" />
          </mxGeometry>
        </mxCell>
        <mxCell id="kWz1B422EnsW_t5FsSwU-114" value="create coupon" style="edgeLabel;html=1;align=center;verticalAlign=middle;resizable=0;points=[];" connectable="0" vertex="1" parent="kWz1B422EnsW_t5FsSwU-111">
          <mxGeometry x="0.0989" relative="1" as="geometry">
            <mxPoint as="offset" />
          </mxGeometry>
        </mxCell>
        <mxCell id="kWz1B422EnsW_t5FsSwU-115" value="Coupon" style="swimlane;fontStyle=1;align=center;verticalAlign=top;childLayout=stackLayout;horizontal=1;startSize=26;horizontalStack=0;resizeParent=1;resizeParentMax=0;resizeLast=0;collapsible=1;marginBottom=0;fillStyle=auto;gradientColor=#d6e8d5;gradientDirection=east;" vertex="1" parent="1">
          <mxGeometry x="-230" y="596" width="160" height="190" as="geometry" />
        </mxCell>
        <mxCell id="kWz1B422EnsW_t5FsSwU-116" value="#id" style="text;strokeColor=none;fillColor=none;align=left;verticalAlign=top;spacingLeft=4;spacingRight=4;overflow=hidden;rotatable=0;points=[[0,0.5],[1,0.5]];portConstraint=eastwest;" vertex="1" parent="kWz1B422EnsW_t5FsSwU-115">
          <mxGeometry y="26" width="160" height="26" as="geometry" />
        </mxCell>
        <mxCell id="kWz1B422EnsW_t5FsSwU-117" value="#passcode" style="text;strokeColor=none;fillColor=none;align=left;verticalAlign=top;spacingLeft=4;spacingRight=4;overflow=hidden;rotatable=0;points=[[0,0.5],[1,0.5]];portConstraint=eastwest;" vertex="1" parent="kWz1B422EnsW_t5FsSwU-115">
          <mxGeometry y="52" width="160" height="26" as="geometry" />
        </mxCell>
        <mxCell id="kWz1B422EnsW_t5FsSwU-118" value="#start_date" style="text;strokeColor=none;fillColor=none;align=left;verticalAlign=top;spacingLeft=4;spacingRight=4;overflow=hidden;rotatable=0;points=[[0,0.5],[1,0.5]];portConstraint=eastwest;" vertex="1" parent="kWz1B422EnsW_t5FsSwU-115">
          <mxGeometry y="78" width="160" height="26" as="geometry" />
        </mxCell>
        <mxCell id="kWz1B422EnsW_t5FsSwU-119" value="#type" style="text;strokeColor=none;fillColor=none;align=left;verticalAlign=top;spacingLeft=4;spacingRight=4;overflow=hidden;rotatable=0;points=[[0,0.5],[1,0.5]];portConstraint=eastwest;" vertex="1" parent="kWz1B422EnsW_t5FsSwU-115">
          <mxGeometry y="104" width="160" height="26" as="geometry" />
        </mxCell>
        <mxCell id="kWz1B422EnsW_t5FsSwU-120" value="#end_date" style="text;strokeColor=none;fillColor=none;align=left;verticalAlign=top;spacingLeft=4;spacingRight=4;overflow=hidden;rotatable=0;points=[[0,0.5],[1,0.5]];portConstraint=eastwest;" vertex="1" parent="kWz1B422EnsW_t5FsSwU-115">
          <mxGeometry y="130" width="160" height="26" as="geometry" />
        </mxCell>
        <mxCell id="kWz1B422EnsW_t5FsSwU-121" value="" style="line;strokeWidth=1;fillColor=none;align=left;verticalAlign=middle;spacingTop=-1;spacingLeft=3;spacingRight=3;rotatable=0;labelPosition=right;points=[];portConstraint=eastwest;strokeColor=inherit;fillStyle=auto;" vertex="1" parent="kWz1B422EnsW_t5FsSwU-115">
          <mxGeometry y="156" width="160" height="8" as="geometry" />
        </mxCell>
        <mxCell id="kWz1B422EnsW_t5FsSwU-122" value="+ method(type): type" style="text;strokeColor=none;fillColor=none;align=left;verticalAlign=top;spacingLeft=4;spacingRight=4;overflow=hidden;rotatable=0;points=[[0,0.5],[1,0.5]];portConstraint=eastwest;" vertex="1" parent="kWz1B422EnsW_t5FsSwU-115">
          <mxGeometry y="164" width="160" height="26" as="geometry" />
        </mxCell>
        <mxCell id="kWz1B422EnsW_t5FsSwU-123" style="edgeStyle=orthogonalEdgeStyle;rounded=0;orthogonalLoop=1;jettySize=auto;html=1;entryX=0.499;entryY=0.978;entryDx=0;entryDy=0;entryPerimeter=0;startArrow=classic;startFill=1;endArrow=none;endFill=0;" edge="1" parent="1" source="kWz1B422EnsW_t5FsSwU-126" target="kWz1B422EnsW_t5FsSwU-95">
          <mxGeometry relative="1" as="geometry" />
        </mxCell>
        <mxCell id="kWz1B422EnsW_t5FsSwU-124" value="make order" style="edgeLabel;html=1;align=center;verticalAlign=middle;resizable=0;points=[];" connectable="0" vertex="1" parent="kWz1B422EnsW_t5FsSwU-123">
          <mxGeometry x="0.2225" y="-2" relative="1" as="geometry">
            <mxPoint as="offset" />
          </mxGeometry>
        </mxCell>
        <mxCell id="kWz1B422EnsW_t5FsSwU-125" value="1" style="edgeLabel;html=1;align=center;verticalAlign=middle;resizable=0;points=[];" connectable="0" vertex="1" parent="kWz1B422EnsW_t5FsSwU-123">
          <mxGeometry x="-0.5933" y="-1" relative="1" as="geometry">
            <mxPoint as="offset" />
          </mxGeometry>
        </mxCell>
        <mxCell id="kWz1B422EnsW_t5FsSwU-126" value="Order" style="swimlane;fontStyle=1;align=center;verticalAlign=top;childLayout=stackLayout;horizontal=1;startSize=26;horizontalStack=0;resizeParent=1;resizeParentMax=0;resizeLast=0;collapsible=1;marginBottom=0;fillColor=#d80073;fontColor=#ffffff;strokeColor=#A50040;" vertex="1" parent="1">
          <mxGeometry x="1190" y="1416" width="230" height="180" as="geometry" />
        </mxCell>
        <mxCell id="kWz1B422EnsW_t5FsSwU-127" value="-id" style="text;strokeColor=none;fillColor=none;align=left;verticalAlign=top;spacingLeft=4;spacingRight=4;overflow=hidden;rotatable=0;points=[[0,0.5],[1,0.5]];portConstraint=eastwest;" vertex="1" parent="kWz1B422EnsW_t5FsSwU-126">
          <mxGeometry y="26" width="230" height="26" as="geometry" />
        </mxCell>
        <mxCell id="kWz1B422EnsW_t5FsSwU-128" value="-status" style="text;strokeColor=none;fillColor=none;align=left;verticalAlign=top;spacingLeft=4;spacingRight=4;overflow=hidden;rotatable=0;points=[[0,0.5],[1,0.5]];portConstraint=eastwest;" vertex="1" parent="kWz1B422EnsW_t5FsSwU-126">
          <mxGeometry y="52" width="230" height="26" as="geometry" />
        </mxCell>
        <mxCell id="kWz1B422EnsW_t5FsSwU-129" value="-date" style="text;strokeColor=none;fillColor=none;align=left;verticalAlign=top;spacingLeft=4;spacingRight=4;overflow=hidden;rotatable=0;points=[[0,0.5],[1,0.5]];portConstraint=eastwest;" vertex="1" parent="kWz1B422EnsW_t5FsSwU-126">
          <mxGeometry y="78" width="230" height="26" as="geometry" />
        </mxCell>
        <mxCell id="kWz1B422EnsW_t5FsSwU-130" value="" style="line;strokeWidth=1;fillColor=none;align=left;verticalAlign=middle;spacingTop=-1;spacingLeft=3;spacingRight=3;rotatable=0;labelPosition=right;points=[];portConstraint=eastwest;strokeColor=inherit;" vertex="1" parent="kWz1B422EnsW_t5FsSwU-126">
          <mxGeometry y="104" width="230" height="8" as="geometry" />
        </mxCell>
        <mxCell id="kWz1B422EnsW_t5FsSwU-131" value="+collect_order(status) : boolean&#xa;+add_course(Course) : boolean&#xa;+update_status_order(order) : boolean&#xa;+remove_course(Courses) : boolean" style="text;strokeColor=none;fillColor=none;align=left;verticalAlign=top;spacingLeft=4;spacingRight=4;overflow=hidden;rotatable=0;points=[[0,0.5],[1,0.5]];portConstraint=eastwest;" vertex="1" parent="kWz1B422EnsW_t5FsSwU-126">
          <mxGeometry y="112" width="230" height="68" as="geometry" />
        </mxCell>
        <mxCell id="kWz1B422EnsW_t5FsSwU-132" style="edgeStyle=orthogonalEdgeStyle;rounded=0;orthogonalLoop=1;jettySize=auto;html=1;entryX=0.996;entryY=0.698;entryDx=0;entryDy=0;entryPerimeter=0;startArrow=none;startFill=0;endArrow=block;endFill=0;" edge="1" parent="1" source="kWz1B422EnsW_t5FsSwU-136" target="kWz1B422EnsW_t5FsSwU-14">
          <mxGeometry relative="1" as="geometry">
            <Array as="points">
              <mxPoint x="310" y="898" />
              <mxPoint x="310" y="886" />
            </Array>
          </mxGeometry>
        </mxCell>
        <mxCell id="kWz1B422EnsW_t5FsSwU-133" value="1" style="edgeLabel;html=1;align=center;verticalAlign=middle;resizable=0;points=[];" connectable="0" vertex="1" parent="kWz1B422EnsW_t5FsSwU-132">
          <mxGeometry x="0.7197" y="-1" relative="1" as="geometry">
            <mxPoint as="offset" />
          </mxGeometry>
        </mxCell>
        <mxCell id="kWz1B422EnsW_t5FsSwU-134" value="1" style="edgeLabel;html=1;align=center;verticalAlign=middle;resizable=0;points=[];" connectable="0" vertex="1" parent="kWz1B422EnsW_t5FsSwU-132">
          <mxGeometry x="-0.7706" y="-1" relative="1" as="geometry">
            <mxPoint as="offset" />
          </mxGeometry>
        </mxCell>
        <mxCell id="kWz1B422EnsW_t5FsSwU-135" value="progress of course" style="edgeLabel;html=1;align=center;verticalAlign=middle;resizable=0;points=[];" connectable="0" vertex="1" parent="kWz1B422EnsW_t5FsSwU-132">
          <mxGeometry x="-0.0629" y="-2" relative="1" as="geometry">
            <mxPoint x="-12" y="14" as="offset" />
          </mxGeometry>
        </mxCell>
        <mxCell id="kWz1B422EnsW_t5FsSwU-136" value="StudentCourse" style="swimlane;fontStyle=1;align=center;verticalAlign=top;childLayout=stackLayout;horizontal=1;startSize=26;horizontalStack=0;resizeParent=1;resizeParentMax=0;resizeLast=0;collapsible=1;marginBottom=0;fillColor=#f8cecc;strokeColor=#b85450;" vertex="1" parent="1">
          <mxGeometry x="400" y="843" width="170" height="110" as="geometry" />
        </mxCell>
        <mxCell id="kWz1B422EnsW_t5FsSwU-137" value="-all progress" style="text;align=left;verticalAlign=top;spacingLeft=4;spacingRight=4;overflow=hidden;rotatable=0;points=[[0,0.5],[1,0.5]];portConstraint=eastwest;" vertex="1" parent="kWz1B422EnsW_t5FsSwU-136">
          <mxGeometry y="26" width="170" height="26" as="geometry" />
        </mxCell>
        <mxCell id="kWz1B422EnsW_t5FsSwU-138" value="" style="line;strokeWidth=1;fillColor=none;align=left;verticalAlign=middle;spacingTop=-1;spacingLeft=3;spacingRight=3;rotatable=0;labelPosition=right;points=[];portConstraint=eastwest;strokeColor=inherit;" vertex="1" parent="kWz1B422EnsW_t5FsSwU-136">
          <mxGeometry y="52" width="170" height="8" as="geometry" />
        </mxCell>
        <mxCell id="kWz1B422EnsW_t5FsSwU-139" value="+get_study_chapter() : class&#xa;+remove_course(Courses) : boolean&#xa;" style="text;strokeColor=none;fillColor=none;align=left;verticalAlign=top;spacingLeft=4;spacingRight=4;overflow=hidden;rotatable=0;points=[[0,0.5],[1,0.5]];portConstraint=eastwest;" vertex="1" parent="kWz1B422EnsW_t5FsSwU-136">
          <mxGeometry y="60" width="170" height="50" as="geometry" />
        </mxCell>
        <mxCell id="kWz1B422EnsW_t5FsSwU-140" style="edgeStyle=orthogonalEdgeStyle;rounded=0;orthogonalLoop=1;jettySize=auto;html=1;startArrow=none;startFill=0;endArrow=none;endFill=0;exitX=0;exitY=0.077;exitDx=0;exitDy=0;exitPerimeter=0;" edge="1" parent="1">
          <mxGeometry relative="1" as="geometry">
            <Array as="points">
              <mxPoint x="441" y="1482" />
              <mxPoint x="441" y="950" />
            </Array>
            <mxPoint x="1189.9999999999995" y="1482.002" as="sourcePoint" />
            <mxPoint x="440" y="950" as="targetPoint" />
          </mxGeometry>
        </mxCell>
        <mxCell id="kWz1B422EnsW_t5FsSwU-141" value="add course" style="edgeLabel;html=1;align=center;verticalAlign=middle;resizable=0;points=[];" connectable="0" vertex="1" parent="kWz1B422EnsW_t5FsSwU-140">
          <mxGeometry x="-0.2014" y="4" relative="1" as="geometry">
            <mxPoint as="offset" />
          </mxGeometry>
        </mxCell>
        <mxCell id="kWz1B422EnsW_t5FsSwU-142" value="0..*" style="edgeLabel;html=1;align=center;verticalAlign=middle;resizable=0;points=[];" connectable="0" vertex="1" parent="kWz1B422EnsW_t5FsSwU-140">
          <mxGeometry x="-0.9091" y="2" relative="1" as="geometry">
            <mxPoint as="offset" />
          </mxGeometry>
        </mxCell>
        <mxCell id="kWz1B422EnsW_t5FsSwU-143" value="1" style="edgeLabel;html=1;align=center;verticalAlign=middle;resizable=0;points=[];" connectable="0" vertex="1" parent="kWz1B422EnsW_t5FsSwU-140">
          <mxGeometry x="0.9278" relative="1" as="geometry">
            <mxPoint as="offset" />
          </mxGeometry>
        </mxCell>
        <mxCell id="kWz1B422EnsW_t5FsSwU-144" style="edgeStyle=orthogonalEdgeStyle;rounded=0;orthogonalLoop=1;jettySize=auto;html=1;entryX=0;entryY=0.25;entryDx=0;entryDy=0;dashed=1;endArrow=none;endFill=0;" edge="1" parent="1">
          <mxGeometry relative="1" as="geometry">
            <Array as="points">
              <mxPoint x="-560" y="579" />
              <mxPoint x="-560" y="243" />
            </Array>
            <mxPoint x="-495" y="578.9999999999999" as="sourcePoint" />
            <mxPoint x="1110" y="231" as="targetPoint" />
          </mxGeometry>
        </mxCell>
        <mxCell id="kWz1B422EnsW_t5FsSwU-145" value="" style="endArrow=blockThin;html=1;rounded=0;exitX=1.012;exitY=1.153;exitDx=0;exitDy=0;exitPerimeter=0;entryX=0.25;entryY=0;entryDx=0;entryDy=0;endFill=0;" edge="1" parent="1" target="kWz1B422EnsW_t5FsSwU-115">
          <mxGeometry width="50" height="50" relative="1" as="geometry">
            <mxPoint x="-333.0799999999999" y="495.97799999999995" as="sourcePoint" />
            <mxPoint x="-190" y="550" as="targetPoint" />
            <Array as="points">
              <mxPoint x="-190" y="496" />
            </Array>
          </mxGeometry>
        </mxCell>
        <mxCell id="kWz1B422EnsW_t5FsSwU-146" value="classify" style="edgeLabel;html=1;align=center;verticalAlign=middle;resizable=0;points=[];" connectable="0" vertex="1" parent="kWz1B422EnsW_t5FsSwU-145">
          <mxGeometry x="-0.3603" y="4" relative="1" as="geometry">
            <mxPoint as="offset" />
          </mxGeometry>
        </mxCell>
        <mxCell id="kWz1B422EnsW_t5FsSwU-147" value="0..1" style="edgeLabel;html=1;align=center;verticalAlign=middle;resizable=0;points=[];" connectable="0" vertex="1" parent="kWz1B422EnsW_t5FsSwU-145">
          <mxGeometry x="-0.8759" y="-1" relative="1" as="geometry">
            <mxPoint as="offset" />
          </mxGeometry>
        </mxCell>
        <mxCell id="kWz1B422EnsW_t5FsSwU-148" value="0...*" style="edgeLabel;html=1;align=center;verticalAlign=middle;resizable=0;points=[];" connectable="0" vertex="1" parent="kWz1B422EnsW_t5FsSwU-145">
          <mxGeometry x="0.7696" y="-1" relative="1" as="geometry">
            <mxPoint y="-8" as="offset" />
          </mxGeometry>
        </mxCell>
        <mxCell id="kWz1B422EnsW_t5FsSwU-149" value="" style="endArrow=blockThin;html=1;rounded=0;entryX=0;entryY=0.084;entryDx=0;entryDy=0;endFill=0;entryPerimeter=0;" edge="1" parent="1" target="kWz1B422EnsW_t5FsSwU-115">
          <mxGeometry width="50" height="50" relative="1" as="geometry">
            <mxPoint x="-335" y="618.225945945946" as="sourcePoint" />
            <mxPoint x="-197" y="711" as="targetPoint" />
            <Array as="points" />
          </mxGeometry>
        </mxCell>
        <mxCell id="kWz1B422EnsW_t5FsSwU-150" value="classify" style="edgeLabel;html=1;align=center;verticalAlign=middle;resizable=0;points=[];" connectable="0" vertex="1" parent="kWz1B422EnsW_t5FsSwU-149">
          <mxGeometry x="-0.1176" relative="1" as="geometry">
            <mxPoint x="9" y="-8" as="offset" />
          </mxGeometry>
        </mxCell>
        <mxCell id="kWz1B422EnsW_t5FsSwU-151" value="0..1" style="edgeLabel;html=1;align=center;verticalAlign=middle;resizable=0;points=[];" connectable="0" vertex="1" parent="kWz1B422EnsW_t5FsSwU-149">
          <mxGeometry x="-0.6773" y="2" relative="1" as="geometry">
            <mxPoint as="offset" />
          </mxGeometry>
        </mxCell>
        <mxCell id="kWz1B422EnsW_t5FsSwU-152" value="0..*" style="edgeLabel;html=1;align=center;verticalAlign=middle;resizable=0;points=[];" connectable="0" vertex="1" parent="kWz1B422EnsW_t5FsSwU-149">
          <mxGeometry x="0.6418" y="5" relative="1" as="geometry">
            <mxPoint as="offset" />
          </mxGeometry>
        </mxCell>
        <mxCell id="kWz1B422EnsW_t5FsSwU-153" value="" style="endArrow=blockThin;html=1;rounded=0;exitX=0.997;exitY=0.18;exitDx=0;exitDy=0;exitPerimeter=0;endFill=0;" edge="1" parent="1" source="kWz1B422EnsW_t5FsSwU-244">
          <mxGeometry width="50" height="50" relative="1" as="geometry">
            <mxPoint x="-335" y="690.69" as="sourcePoint" />
            <mxPoint x="-230" y="690" as="targetPoint" />
            <Array as="points" />
          </mxGeometry>
        </mxCell>
        <mxCell id="kWz1B422EnsW_t5FsSwU-154" value="classify" style="edgeLabel;html=1;align=center;verticalAlign=middle;resizable=0;points=[];" connectable="0" vertex="1" parent="kWz1B422EnsW_t5FsSwU-153">
          <mxGeometry x="0.0609" y="5" relative="1" as="geometry">
            <mxPoint y="-5" as="offset" />
          </mxGeometry>
        </mxCell>
        <mxCell id="kWz1B422EnsW_t5FsSwU-155" value="0..1" style="edgeLabel;html=1;align=center;verticalAlign=middle;resizable=0;points=[];" connectable="0" vertex="1" parent="kWz1B422EnsW_t5FsSwU-153">
          <mxGeometry x="-0.6261" y="-5" relative="1" as="geometry">
            <mxPoint as="offset" />
          </mxGeometry>
        </mxCell>
        <mxCell id="kWz1B422EnsW_t5FsSwU-156" value="0...*" style="edgeLabel;html=1;align=center;verticalAlign=middle;resizable=0;points=[];" connectable="0" vertex="1" parent="kWz1B422EnsW_t5FsSwU-153">
          <mxGeometry x="0.5933" y="-3" relative="1" as="geometry">
            <mxPoint as="offset" />
          </mxGeometry>
        </mxCell>
        <mxCell id="kWz1B422EnsW_t5FsSwU-157" value="" style="endArrow=classic;html=1;rounded=0;exitX=0.75;exitY=0;exitDx=0;exitDy=0;" edge="1" parent="1" source="kWz1B422EnsW_t5FsSwU-80">
          <mxGeometry width="50" height="50" relative="1" as="geometry">
            <mxPoint x="910" y="430" as="sourcePoint" />
            <mxPoint x="1190" y="270" as="targetPoint" />
          </mxGeometry>
        </mxCell>
        <mxCell id="kWz1B422EnsW_t5FsSwU-158" value="1" style="edgeLabel;html=1;align=center;verticalAlign=middle;resizable=0;points=[];" connectable="0" vertex="1" parent="kWz1B422EnsW_t5FsSwU-157">
          <mxGeometry x="-0.8927" y="-2" relative="1" as="geometry">
            <mxPoint as="offset" />
          </mxGeometry>
        </mxCell>
        <mxCell id="kWz1B422EnsW_t5FsSwU-159" value="0..1" style="edgeLabel;html=1;align=center;verticalAlign=middle;resizable=0;points=[];" connectable="0" vertex="1" parent="kWz1B422EnsW_t5FsSwU-157">
          <mxGeometry x="0.8376" y="-2" relative="1" as="geometry">
            <mxPoint as="offset" />
          </mxGeometry>
        </mxCell>
        <mxCell id="kWz1B422EnsW_t5FsSwU-160" value="add coupon" style="edgeLabel;html=1;align=center;verticalAlign=middle;resizable=0;points=[];" connectable="0" vertex="1" parent="kWz1B422EnsW_t5FsSwU-157">
          <mxGeometry x="-0.0584" y="-4" relative="1" as="geometry">
            <mxPoint as="offset" />
          </mxGeometry>
        </mxCell>
        <mxCell id="kWz1B422EnsW_t5FsSwU-161" value="" style="endArrow=none;html=1;rounded=0;entryX=0;entryY=0.5;entryDx=0;entryDy=0;endFill=0;startSize=14;endSize=14;dashed=1;" edge="1" parent="1" target="kWz1B422EnsW_t5FsSwU-235">
          <mxGeometry width="50" height="50" relative="1" as="geometry">
            <mxPoint x="-415" y="440" as="sourcePoint" />
            <mxPoint x="1110" y="244" as="targetPoint" />
            <Array as="points">
              <mxPoint x="-415" y="260" />
              <mxPoint x="-170" y="260" />
            </Array>
          </mxGeometry>
        </mxCell>
        <mxCell id="kWz1B422EnsW_t5FsSwU-162" value="0..*" style="edgeLabel;html=1;align=center;verticalAlign=middle;resizable=0;points=[];" connectable="0" vertex="1" parent="kWz1B422EnsW_t5FsSwU-161">
          <mxGeometry x="-0.9705" y="-2" relative="1" as="geometry">
            <mxPoint as="offset" />
          </mxGeometry>
        </mxCell>
        <mxCell id="kWz1B422EnsW_t5FsSwU-163" value="0..1" style="edgeLabel;html=1;align=center;verticalAlign=middle;resizable=0;points=[];" connectable="0" vertex="1" parent="kWz1B422EnsW_t5FsSwU-161">
          <mxGeometry x="0.9533" y="-1" relative="1" as="geometry">
            <mxPoint x="1" as="offset" />
          </mxGeometry>
        </mxCell>
        <mxCell id="kWz1B422EnsW_t5FsSwU-164" value="collect all coupons" style="edgeLabel;html=1;align=center;verticalAlign=middle;resizable=0;points=[];" connectable="0" vertex="1" parent="kWz1B422EnsW_t5FsSwU-161">
          <mxGeometry x="-0.0086" y="4" relative="1" as="geometry">
            <mxPoint x="-1" y="-15" as="offset" />
          </mxGeometry>
        </mxCell>
        <mxCell id="kWz1B422EnsW_t5FsSwU-165" value="แพวา" style="shape=umlActor;verticalLabelPosition=bottom;verticalAlign=top;html=1;outlineConnect=0;" vertex="1" parent="1">
          <mxGeometry x="60" y="1220" width="30" height="60" as="geometry" />
        </mxCell>
        <mxCell id="kWz1B422EnsW_t5FsSwU-166" value="พัด" style="shape=umlActor;verticalLabelPosition=bottom;verticalAlign=top;html=1;outlineConnect=0;" vertex="1" parent="1">
          <mxGeometry x="100" y="1220" width="30" height="60" as="geometry" />
        </mxCell>
        <mxCell id="kWz1B422EnsW_t5FsSwU-167" value="ปุ้กซี่" style="shape=umlActor;verticalLabelPosition=bottom;verticalAlign=top;html=1;outlineConnect=0;" vertex="1" parent="1">
          <mxGeometry x="140" y="1220" width="30" height="60" as="geometry" />
        </mxCell>
        <mxCell id="kWz1B422EnsW_t5FsSwU-168" value="มิวมิว" style="shape=umlActor;verticalLabelPosition=bottom;verticalAlign=top;html=1;outlineConnect=0;" vertex="1" parent="1">
          <mxGeometry x="180" y="1220" width="30" height="60" as="geometry" />
        </mxCell>
        <mxCell id="kWz1B422EnsW_t5FsSwU-169" value="" style="verticalLabelPosition=bottom;verticalAlign=top;html=1;shape=mxgraph.basic.smiley;fillColor=#fff2cc;strokeColor=#d6b656;" vertex="1" parent="1">
          <mxGeometry x="340" y="652" width="70" height="70" as="geometry" />
        </mxCell>
        <mxCell id="kWz1B422EnsW_t5FsSwU-170" value="" style="verticalLabelPosition=bottom;verticalAlign=top;html=1;shape=mxgraph.basic.drop;fillColor=#dae8fc;strokeColor=#6c8ebf;" vertex="1" parent="1">
          <mxGeometry x="390" y="686" width="10" height="20" as="geometry" />
        </mxCell>
        <mxCell id="kWz1B422EnsW_t5FsSwU-171" value="" style="shape=umlDestroy;whiteSpace=wrap;html=1;strokeWidth=3;targetShapes=umlLifeline;fillColor=#d80073;fontColor=#ffffff;strokeColor=#A50040;" vertex="1" parent="1">
          <mxGeometry x="60" y="1212.21" width="30" height="30" as="geometry" />
        </mxCell>
        <mxCell id="kWz1B422EnsW_t5FsSwU-172" style="edgeStyle=orthogonalEdgeStyle;rounded=0;orthogonalLoop=1;jettySize=auto;html=1;exitX=0.567;exitY=-0.027;exitDx=0;exitDy=0;startArrow=classic;startFill=1;endArrow=none;endFill=0;exitPerimeter=0;" edge="1" parent="1" source="kWz1B422EnsW_t5FsSwU-176" target="kWz1B422EnsW_t5FsSwU-34">
          <mxGeometry relative="1" as="geometry">
            <mxPoint x="580.0000000000002" y="650" as="targetPoint" />
            <mxPoint x="590.0000000000002" y="1069.21" as="sourcePoint" />
            <Array as="points">
              <mxPoint x="601" y="1069" />
              <mxPoint x="610" y="1069" />
              <mxPoint x="610" y="450" />
            </Array>
          </mxGeometry>
        </mxCell>
        <mxCell id="kWz1B422EnsW_t5FsSwU-173" value="1" style="edgeLabel;html=1;align=center;verticalAlign=middle;resizable=0;points=[];" connectable="0" vertex="1" parent="kWz1B422EnsW_t5FsSwU-172">
          <mxGeometry x="0.8177" relative="1" as="geometry">
            <mxPoint as="offset" />
          </mxGeometry>
        </mxCell>
        <mxCell id="kWz1B422EnsW_t5FsSwU-174" value="0..*" style="edgeLabel;html=1;align=center;verticalAlign=middle;resizable=0;points=[];" connectable="0" vertex="1" parent="kWz1B422EnsW_t5FsSwU-172">
          <mxGeometry x="-0.8606" y="-3" relative="1" as="geometry">
            <mxPoint as="offset" />
          </mxGeometry>
        </mxCell>
        <mxCell id="kWz1B422EnsW_t5FsSwU-175" value="has wish list" style="edgeLabel;html=1;align=center;verticalAlign=middle;resizable=0;points=[];" connectable="0" vertex="1" parent="kWz1B422EnsW_t5FsSwU-172">
          <mxGeometry x="0.0402" relative="1" as="geometry">
            <mxPoint as="offset" />
          </mxGeometry>
        </mxCell>
        <mxCell id="kWz1B422EnsW_t5FsSwU-176" value="WishList" style="swimlane;fontStyle=1;align=center;verticalAlign=top;childLayout=stackLayout;horizontal=1;startSize=26;horizontalStack=0;resizeParent=1;resizeParentMax=0;resizeLast=0;collapsible=1;marginBottom=0;fillColor=#fff2cc;strokeColor=#d6b656;" vertex="1" parent="1">
          <mxGeometry x="510" y="1077.21" width="160" height="52" as="geometry" />
        </mxCell>
        <mxCell id="kWz1B422EnsW_t5FsSwU-177" value="+method(type):type" style="text;strokeColor=none;fillColor=none;align=left;verticalAlign=top;spacingLeft=4;spacingRight=4;overflow=hidden;rotatable=0;points=[[0,0.5],[1,0.5]];portConstraint=eastwest;" vertex="1" parent="kWz1B422EnsW_t5FsSwU-176">
          <mxGeometry y="26" width="160" height="26" as="geometry" />
        </mxCell>
        <mxCell id="kWz1B422EnsW_t5FsSwU-178" style="edgeStyle=orthogonalEdgeStyle;rounded=0;orthogonalLoop=1;jettySize=auto;html=1;startArrow=diamondThin;startFill=0;endArrow=none;endFill=0;entryX=1.006;entryY=0.808;entryDx=0;entryDy=0;entryPerimeter=0;exitX=0.442;exitY=-0.034;exitDx=0;exitDy=0;exitPerimeter=0;" edge="1" parent="1" source="kWz1B422EnsW_t5FsSwU-176" target="kWz1B422EnsW_t5FsSwU-20">
          <mxGeometry relative="1" as="geometry">
            <mxPoint x="250" y="1046" as="targetPoint" />
            <Array as="points">
              <mxPoint x="581" y="1050" />
              <mxPoint x="262" y="1050" />
            </Array>
            <mxPoint x="580" y="1070" as="sourcePoint" />
          </mxGeometry>
        </mxCell>
        <mxCell id="kWz1B422EnsW_t5FsSwU-179" value="1" style="edgeLabel;html=1;align=center;verticalAlign=middle;resizable=0;points=[];" connectable="0" vertex="1" parent="kWz1B422EnsW_t5FsSwU-178">
          <mxGeometry x="-0.9331" y="4" relative="1" as="geometry">
            <mxPoint x="-11" as="offset" />
          </mxGeometry>
        </mxCell>
        <mxCell id="kWz1B422EnsW_t5FsSwU-180" value="0..*" style="edgeLabel;html=1;align=center;verticalAlign=middle;resizable=0;points=[];" connectable="0" vertex="1" parent="kWz1B422EnsW_t5FsSwU-178">
          <mxGeometry x="0.7693" y="1" relative="1" as="geometry">
            <mxPoint as="offset" />
          </mxGeometry>
        </mxCell>
        <mxCell id="kWz1B422EnsW_t5FsSwU-181" value="add course to wish list" style="edgeLabel;html=1;align=center;verticalAlign=middle;resizable=0;points=[];" connectable="0" vertex="1" parent="kWz1B422EnsW_t5FsSwU-178">
          <mxGeometry x="-0.1748" relative="1" as="geometry">
            <mxPoint as="offset" />
          </mxGeometry>
        </mxCell>
        <mxCell id="kWz1B422EnsW_t5FsSwU-182" value="ออมเอมอิ่ม" style="shape=umlActor;verticalLabelPosition=bottom;verticalAlign=top;html=1;outlineConnect=0;" vertex="1" parent="1">
          <mxGeometry x="230" y="1220" width="30" height="60" as="geometry" />
        </mxCell>
        <mxCell id="kWz1B422EnsW_t5FsSwU-183" value="" style="verticalLabelPosition=bottom;verticalAlign=top;html=1;shape=mxgraph.basic.heart;fillColor=#e1d5e7;strokeColor=#9673a6;" vertex="1" parent="1">
          <mxGeometry x="235" y="1189.71" width="20" height="20" as="geometry" />
        </mxCell>
        <mxCell id="kWz1B422EnsW_t5FsSwU-184" value="" style="verticalLabelPosition=bottom;verticalAlign=top;html=1;shape=mxgraph.basic.smiley;fillColor=#fff2cc;strokeColor=#000000;" vertex="1" parent="1">
          <mxGeometry x="237.5" y="1220" width="15" height="15" as="geometry" />
        </mxCell>
        <mxCell id="kWz1B422EnsW_t5FsSwU-185" value="" style="verticalLabelPosition=bottom;verticalAlign=top;html=1;shape=mxgraph.basic.cone2;dx=0.44;dy=1;strokeColor=#b46504;rotation=-150;fillColor=#fad7ac;" vertex="1" parent="1">
          <mxGeometry x="260" y="1220" width="10" height="20" as="geometry" />
        </mxCell>
        <mxCell id="kWz1B422EnsW_t5FsSwU-186" value="" style="verticalLabelPosition=bottom;verticalAlign=top;html=1;shape=mxgraph.basic.half_circle;strokeColor=#0e8088;rotation=-150;fillColor=#b0e3e6;" vertex="1" parent="1">
          <mxGeometry x="265.7" y="1215.21" width="7" height="5.72" as="geometry" />
        </mxCell>
        <mxCell id="kWz1B422EnsW_t5FsSwU-187" value="" style="verticalLabelPosition=bottom;verticalAlign=top;html=1;shape=mxgraph.basic.half_circle;strokeColor=#007FFF;rotation=-150;fillColor=#cce5ff;" vertex="1" parent="1">
          <mxGeometry x="271" y="1218.21" width="7" height="5.72" as="geometry" />
        </mxCell>
        <mxCell id="kWz1B422EnsW_t5FsSwU-188" value="" style="ellipse;whiteSpace=wrap;html=1;aspect=fixed;strokeColor=#b85450;fillColor=#F82541;strokeWidth=0.1;" vertex="1" parent="1">
          <mxGeometry x="271" y="1215.21" width="3" height="3" as="geometry" />
        </mxCell>
        <mxCell id="kWz1B422EnsW_t5FsSwU-189" value="CourseViewChapter " style="swimlane;fontStyle=1;align=center;verticalAlign=top;childLayout=stackLayout;horizontal=1;startSize=26;horizontalStack=0;resizeParent=1;resizeParentMax=0;resizeLast=0;collapsible=1;marginBottom=0;fillColor=#f8cecc;strokeColor=#b85450;" vertex="1" parent="1">
          <mxGeometry x="690" y="1149" width="160" height="86" as="geometry" />
        </mxCell>
        <mxCell id="kWz1B422EnsW_t5FsSwU-190" value="-progress " style="text;align=left;verticalAlign=top;spacingLeft=4;spacingRight=4;overflow=hidden;rotatable=0;points=[[0,0.5],[1,0.5]];portConstraint=eastwest;" vertex="1" parent="kWz1B422EnsW_t5FsSwU-189">
          <mxGeometry y="26" width="160" height="26" as="geometry" />
        </mxCell>
        <mxCell id="kWz1B422EnsW_t5FsSwU-191" value="" style="line;strokeWidth=1;fillColor=none;align=left;verticalAlign=middle;spacingTop=-1;spacingLeft=3;spacingRight=3;rotatable=0;labelPosition=right;points=[];portConstraint=eastwest;strokeColor=inherit;" vertex="1" parent="kWz1B422EnsW_t5FsSwU-189">
          <mxGeometry y="52" width="160" height="8" as="geometry" />
        </mxCell>
        <mxCell id="kWz1B422EnsW_t5FsSwU-192" value="+ method(type): type" style="text;strokeColor=none;fillColor=none;align=left;verticalAlign=top;spacingLeft=4;spacingRight=4;overflow=hidden;rotatable=0;points=[[0,0.5],[1,0.5]];portConstraint=eastwest;" vertex="1" parent="kWz1B422EnsW_t5FsSwU-189">
          <mxGeometry y="60" width="160" height="26" as="geometry" />
        </mxCell>
        <mxCell id="kWz1B422EnsW_t5FsSwU-193" style="edgeStyle=orthogonalEdgeStyle;rounded=0;orthogonalLoop=1;jettySize=auto;html=1;entryX=0.5;entryY=0;entryDx=0;entryDy=0;startArrow=none;startFill=0;endArrow=none;endFill=0;exitX=1;exitY=0.5;exitDx=0;exitDy=0;" edge="1" parent="1" source="kWz1B422EnsW_t5FsSwU-139" target="kWz1B422EnsW_t5FsSwU-189">
          <mxGeometry relative="1" as="geometry">
            <mxPoint x="500" y="930" as="sourcePoint" />
            <Array as="points">
              <mxPoint x="580" y="930" />
              <mxPoint x="580" y="920" />
              <mxPoint x="750" y="920" />
              <mxPoint x="750" y="1124" />
              <mxPoint x="770" y="1124" />
            </Array>
          </mxGeometry>
        </mxCell>
        <mxCell id="kWz1B422EnsW_t5FsSwU-194" value="1" style="edgeLabel;html=1;align=center;verticalAlign=middle;resizable=0;points=[];" connectable="0" vertex="1" parent="kWz1B422EnsW_t5FsSwU-193">
          <mxGeometry x="-0.9137" y="-2" relative="1" as="geometry">
            <mxPoint x="23" as="offset" />
          </mxGeometry>
        </mxCell>
        <mxCell id="kWz1B422EnsW_t5FsSwU-195" value="1..*" style="edgeLabel;html=1;align=center;verticalAlign=middle;resizable=0;points=[];" connectable="0" vertex="1" parent="kWz1B422EnsW_t5FsSwU-193">
          <mxGeometry x="0.9231" relative="1" as="geometry">
            <mxPoint as="offset" />
          </mxGeometry>
        </mxCell>
        <mxCell id="kWz1B422EnsW_t5FsSwU-196" value="view progress&lt;br&gt;of each chapter" style="edgeLabel;html=1;align=center;verticalAlign=middle;resizable=0;points=[];" connectable="0" vertex="1" parent="kWz1B422EnsW_t5FsSwU-193">
          <mxGeometry x="0.3669" relative="1" as="geometry">
            <mxPoint as="offset" />
          </mxGeometry>
        </mxCell>
        <mxCell id="kWz1B422EnsW_t5FsSwU-197" value="0" style="edgeStyle=orthogonalEdgeStyle;rounded=0;orthogonalLoop=1;jettySize=auto;html=1;entryX=1;entryY=0.5;entryDx=0;entryDy=0;startArrow=diamondThin;startFill=1;endArrow=none;endFill=0;" edge="1" parent="1" source="kWz1B422EnsW_t5FsSwU-37" target="kWz1B422EnsW_t5FsSwU-190">
          <mxGeometry x="0.124" relative="1" as="geometry">
            <mxPoint as="offset" />
            <Array as="points">
              <mxPoint x="880" y="1188" />
            </Array>
          </mxGeometry>
        </mxCell>
        <mxCell id="kWz1B422EnsW_t5FsSwU-198" value="view chapter in &lt;br&gt;student&#39;s courses&amp;nbsp;" style="edgeLabel;html=1;align=center;verticalAlign=middle;resizable=0;points=[];" connectable="0" vertex="1" parent="kWz1B422EnsW_t5FsSwU-197">
          <mxGeometry x="0.1243" y="-3" relative="1" as="geometry">
            <mxPoint y="1" as="offset" />
          </mxGeometry>
        </mxCell>
        <mxCell id="kWz1B422EnsW_t5FsSwU-199" value="1" style="edgeLabel;html=1;align=center;verticalAlign=middle;resizable=0;points=[];" connectable="0" vertex="1" parent="kWz1B422EnsW_t5FsSwU-197">
          <mxGeometry x="-0.9155" y="1" relative="1" as="geometry">
            <mxPoint as="offset" />
          </mxGeometry>
        </mxCell>
        <mxCell id="kWz1B422EnsW_t5FsSwU-200" value="0..*" style="edgeLabel;html=1;align=center;verticalAlign=middle;resizable=0;points=[];" connectable="0" vertex="1" parent="kWz1B422EnsW_t5FsSwU-197">
          <mxGeometry x="0.8239" relative="1" as="geometry">
            <mxPoint as="offset" />
          </mxGeometry>
        </mxCell>
        <mxCell id="kWz1B422EnsW_t5FsSwU-201" style="edgeStyle=orthogonalEdgeStyle;rounded=0;orthogonalLoop=1;jettySize=auto;html=1;dashed=1;endArrow=none;endFill=0;" edge="1" parent="1" source="kWz1B422EnsW_t5FsSwU-202" target="kWz1B422EnsW_t5FsSwU-217">
          <mxGeometry relative="1" as="geometry">
            <mxPoint x="470" y="300" as="targetPoint" />
            <Array as="points">
              <mxPoint x="80" y="90" />
            </Array>
          </mxGeometry>
        </mxCell>
        <mxCell id="kWz1B422EnsW_t5FsSwU-202" value="Admin" style="swimlane;fontStyle=1;align=center;verticalAlign=top;childLayout=stackLayout;horizontal=1;startSize=26;horizontalStack=0;resizeParent=1;resizeParentMax=0;resizeLast=0;collapsible=1;marginBottom=0;fillColor=#dae8fc;strokeColor=#6c8ebf;" vertex="1" parent="1">
          <mxGeometry x="-122.5" y="310" width="360" height="84" as="geometry" />
        </mxCell>
        <mxCell id="kWz1B422EnsW_t5FsSwU-203" value="" style="line;strokeWidth=1;fillColor=none;align=left;verticalAlign=middle;spacingTop=-1;spacingLeft=3;spacingRight=3;rotatable=0;labelPosition=right;points=[];portConstraint=eastwest;strokeColor=inherit;" vertex="1" parent="kWz1B422EnsW_t5FsSwU-202">
          <mxGeometry y="26" width="360" height="8" as="geometry" />
        </mxCell>
        <mxCell id="kWz1B422EnsW_t5FsSwU-204" value="+ verify_instructor(Account) : boolean&#xa;+ create_coupon(id,passcode,start_date,end_date,type) : boolean&#xa;+ create_user(Account ) : boolean" style="text;strokeColor=none;fillColor=none;align=left;verticalAlign=top;spacingLeft=4;spacingRight=4;overflow=hidden;rotatable=0;points=[[0,0.5],[1,0.5]];portConstraint=eastwest;" vertex="1" parent="kWz1B422EnsW_t5FsSwU-202">
          <mxGeometry y="34" width="360" height="50" as="geometry" />
        </mxCell>
        <mxCell id="kWz1B422EnsW_t5FsSwU-205" style="edgeStyle=orthogonalEdgeStyle;rounded=0;orthogonalLoop=1;jettySize=auto;html=1;exitX=0;exitY=0.5;exitDx=0;exitDy=0;dashed=1;endArrow=none;endFill=0;" edge="1" parent="1">
          <mxGeometry relative="1" as="geometry">
            <mxPoint x="1110" y="230" as="targetPoint" />
            <Array as="points">
              <mxPoint x="-610" y="691" />
              <mxPoint x="-610" y="230" />
              <mxPoint x="1100" y="230" />
            </Array>
            <mxPoint x="-495" y="769" as="sourcePoint" />
          </mxGeometry>
        </mxCell>
        <mxCell id="kWz1B422EnsW_t5FsSwU-206" style="edgeStyle=orthogonalEdgeStyle;rounded=0;orthogonalLoop=1;jettySize=auto;html=1;dashed=1;endArrow=block;endFill=0;entryX=0.506;entryY=1.048;entryDx=0;entryDy=0;entryPerimeter=0;" edge="1" parent="1" source="kWz1B422EnsW_t5FsSwU-211" target="kWz1B422EnsW_t5FsSwU-131">
          <mxGeometry relative="1" as="geometry">
            <Array as="points">
              <mxPoint x="1306" y="1630" />
            </Array>
          </mxGeometry>
        </mxCell>
        <mxCell id="kWz1B422EnsW_t5FsSwU-207" style="edgeStyle=orthogonalEdgeStyle;rounded=0;orthogonalLoop=1;jettySize=auto;html=1;entryX=1;entryY=0.5;entryDx=0;entryDy=0;endArrow=none;endFill=0;" edge="1" parent="1" source="kWz1B422EnsW_t5FsSwU-211" target="kWz1B422EnsW_t5FsSwU-34">
          <mxGeometry relative="1" as="geometry">
            <Array as="points">
              <mxPoint x="1020" y="1581" />
              <mxPoint x="1020" y="385" />
            </Array>
          </mxGeometry>
        </mxCell>
        <mxCell id="kWz1B422EnsW_t5FsSwU-208" value="1" style="edgeLabel;html=1;align=center;verticalAlign=middle;resizable=0;points=[];" connectable="0" vertex="1" parent="kWz1B422EnsW_t5FsSwU-207">
          <mxGeometry x="0.9655" y="1" relative="1" as="geometry">
            <mxPoint x="-1" as="offset" />
          </mxGeometry>
        </mxCell>
        <mxCell id="kWz1B422EnsW_t5FsSwU-209" value="0..*" style="edgeLabel;html=1;align=center;verticalAlign=middle;resizable=0;points=[];" connectable="0" vertex="1" parent="kWz1B422EnsW_t5FsSwU-207">
          <mxGeometry x="-0.9424" relative="1" as="geometry">
            <mxPoint as="offset" />
          </mxGeometry>
        </mxCell>
        <mxCell id="kWz1B422EnsW_t5FsSwU-210" value="send notification to student" style="edgeLabel;html=1;align=center;verticalAlign=middle;resizable=0;points=[];" connectable="0" vertex="1" parent="kWz1B422EnsW_t5FsSwU-207">
          <mxGeometry x="-0.122" y="-1" relative="1" as="geometry">
            <mxPoint y="1" as="offset" />
          </mxGeometry>
        </mxCell>
        <mxCell id="kWz1B422EnsW_t5FsSwU-211" value="Notification" style="swimlane;fontStyle=1;align=center;verticalAlign=top;childLayout=stackLayout;horizontal=1;startSize=26;horizontalStack=0;resizeParent=1;resizeParentMax=0;resizeLast=0;collapsible=1;marginBottom=0;fillColor=#d80073;fontColor=#ffffff;strokeColor=#A50040;" vertex="1" parent="1">
          <mxGeometry x="750" y="1512" width="160" height="138" as="geometry" />
        </mxCell>
        <mxCell id="kWz1B422EnsW_t5FsSwU-212" value="-id" style="text;strokeColor=none;fillColor=none;align=left;verticalAlign=top;spacingLeft=4;spacingRight=4;overflow=hidden;rotatable=0;points=[[0,0.5],[1,0.5]];portConstraint=eastwest;" vertex="1" parent="kWz1B422EnsW_t5FsSwU-211">
          <mxGeometry y="26" width="160" height="26" as="geometry" />
        </mxCell>
        <mxCell id="kWz1B422EnsW_t5FsSwU-213" value="-date" style="text;strokeColor=none;fillColor=none;align=left;verticalAlign=top;spacingLeft=4;spacingRight=4;overflow=hidden;rotatable=0;points=[[0,0.5],[1,0.5]];portConstraint=eastwest;" vertex="1" parent="kWz1B422EnsW_t5FsSwU-211">
          <mxGeometry y="52" width="160" height="26" as="geometry" />
        </mxCell>
        <mxCell id="kWz1B422EnsW_t5FsSwU-214" value="-description" style="text;strokeColor=none;fillColor=none;align=left;verticalAlign=top;spacingLeft=4;spacingRight=4;overflow=hidden;rotatable=0;points=[[0,0.5],[1,0.5]];portConstraint=eastwest;" vertex="1" parent="kWz1B422EnsW_t5FsSwU-211">
          <mxGeometry y="78" width="160" height="26" as="geometry" />
        </mxCell>
        <mxCell id="kWz1B422EnsW_t5FsSwU-215" value="" style="line;strokeWidth=1;fillColor=none;align=left;verticalAlign=middle;spacingTop=-1;spacingLeft=3;spacingRight=3;rotatable=0;labelPosition=right;points=[];portConstraint=eastwest;strokeColor=inherit;" vertex="1" parent="kWz1B422EnsW_t5FsSwU-211">
          <mxGeometry y="104" width="160" height="8" as="geometry" />
        </mxCell>
        <mxCell id="kWz1B422EnsW_t5FsSwU-216" value="+sent() : boolean" style="text;strokeColor=none;fillColor=none;align=left;verticalAlign=top;spacingLeft=4;spacingRight=4;overflow=hidden;rotatable=0;points=[[0,0.5],[1,0.5]];portConstraint=eastwest;" vertex="1" parent="kWz1B422EnsW_t5FsSwU-211">
          <mxGeometry y="112" width="160" height="26" as="geometry" />
        </mxCell>
        <mxCell id="kWz1B422EnsW_t5FsSwU-217" value="Users" style="swimlane;fontStyle=1;align=center;verticalAlign=top;childLayout=stackLayout;horizontal=1;startSize=26;horizontalStack=0;resizeParent=1;resizeParentMax=0;resizeLast=0;collapsible=1;marginBottom=0;fillColor=#dae8fc;strokeColor=#6c8ebf;" vertex="1" parent="1">
          <mxGeometry x="410" y="80" width="260" height="60" as="geometry" />
        </mxCell>
        <mxCell id="kWz1B422EnsW_t5FsSwU-218" value="" style="line;strokeWidth=1;fillColor=none;align=left;verticalAlign=middle;spacingTop=-1;spacingLeft=3;spacingRight=3;rotatable=0;labelPosition=right;points=[];portConstraint=eastwest;strokeColor=inherit;" vertex="1" parent="kWz1B422EnsW_t5FsSwU-217">
          <mxGeometry y="26" width="260" height="8" as="geometry" />
        </mxCell>
        <mxCell id="kWz1B422EnsW_t5FsSwU-219" value="+ verify_user(username,password) : boolean" style="text;strokeColor=none;fillColor=none;align=left;verticalAlign=top;spacingLeft=4;spacingRight=4;overflow=hidden;rotatable=0;points=[[0,0.5],[1,0.5]];portConstraint=eastwest;" vertex="1" parent="kWz1B422EnsW_t5FsSwU-217">
          <mxGeometry y="34" width="260" height="26" as="geometry" />
        </mxCell>
        <mxCell id="kWz1B422EnsW_t5FsSwU-220" style="edgeStyle=orthogonalEdgeStyle;rounded=0;orthogonalLoop=1;jettySize=auto;html=1;startArrow=classic;startFill=1;endArrow=none;endFill=0;exitX=0;exitY=0.184;exitDx=0;exitDy=0;exitPerimeter=0;" edge="1" parent="1" target="kWz1B422EnsW_t5FsSwU-202">
          <mxGeometry relative="1" as="geometry">
            <Array as="points">
              <mxPoint x="-590" y="744" />
              <mxPoint x="-590" y="350" />
            </Array>
            <mxPoint x="-495" y="744.3520000000001" as="sourcePoint" />
            <mxPoint y="350" as="targetPoint" />
          </mxGeometry>
        </mxCell>
        <mxCell id="kWz1B422EnsW_t5FsSwU-221" value="0..*" style="edgeLabel;html=1;align=center;verticalAlign=middle;resizable=0;points=[];" connectable="0" vertex="1" parent="kWz1B422EnsW_t5FsSwU-220">
          <mxGeometry x="-0.7393" y="-1" relative="1" as="geometry">
            <mxPoint as="offset" />
          </mxGeometry>
        </mxCell>
        <mxCell id="kWz1B422EnsW_t5FsSwU-222" value="1" style="edgeLabel;html=1;align=center;verticalAlign=middle;resizable=0;points=[];" connectable="0" vertex="1" parent="kWz1B422EnsW_t5FsSwU-220">
          <mxGeometry x="0.8793" y="1" relative="1" as="geometry">
            <mxPoint as="offset" />
          </mxGeometry>
        </mxCell>
        <mxCell id="kWz1B422EnsW_t5FsSwU-223" value="create coupon" style="edgeLabel;html=1;align=center;verticalAlign=middle;resizable=0;points=[];" connectable="0" vertex="1" parent="kWz1B422EnsW_t5FsSwU-220">
          <mxGeometry x="0.0989" relative="1" as="geometry">
            <mxPoint as="offset" />
          </mxGeometry>
        </mxCell>
        <mxCell id="kWz1B422EnsW_t5FsSwU-224" style="edgeStyle=orthogonalEdgeStyle;rounded=0;orthogonalLoop=1;jettySize=auto;html=1;startArrow=classic;startFill=1;endArrow=none;endFill=0;exitX=0.997;exitY=0.139;exitDx=0;exitDy=0;exitPerimeter=0;entryX=-0.004;entryY=0.178;entryDx=0;entryDy=0;entryPerimeter=0;" edge="1" parent="1" source="kWz1B422EnsW_t5FsSwU-240" target="kWz1B422EnsW_t5FsSwU-251">
          <mxGeometry relative="1" as="geometry">
            <Array as="points">
              <mxPoint x="-310" y="591" />
              <mxPoint x="-310" y="590" />
              <mxPoint x="-250" y="590" />
              <mxPoint x="-250" y="550" />
              <mxPoint x="-140" y="550" />
              <mxPoint x="-140" y="509" />
            </Array>
            <mxPoint x="-330" y="580" as="sourcePoint" />
            <mxPoint y="510" as="targetPoint" />
          </mxGeometry>
        </mxCell>
        <mxCell id="kWz1B422EnsW_t5FsSwU-225" value="0..*" style="edgeLabel;html=1;align=center;verticalAlign=middle;resizable=0;points=[];" connectable="0" vertex="1" parent="kWz1B422EnsW_t5FsSwU-224">
          <mxGeometry x="-0.7393" y="-1" relative="1" as="geometry">
            <mxPoint as="offset" />
          </mxGeometry>
        </mxCell>
        <mxCell id="kWz1B422EnsW_t5FsSwU-226" value="1" style="edgeLabel;html=1;align=center;verticalAlign=middle;resizable=0;points=[];" connectable="0" vertex="1" parent="kWz1B422EnsW_t5FsSwU-224">
          <mxGeometry x="0.8793" y="1" relative="1" as="geometry">
            <mxPoint as="offset" />
          </mxGeometry>
        </mxCell>
        <mxCell id="kWz1B422EnsW_t5FsSwU-227" value="create coupon" style="edgeLabel;html=1;align=center;verticalAlign=middle;resizable=0;points=[];" connectable="0" vertex="1" parent="kWz1B422EnsW_t5FsSwU-224">
          <mxGeometry x="0.0989" relative="1" as="geometry">
            <mxPoint as="offset" />
          </mxGeometry>
        </mxCell>
        <mxCell id="kWz1B422EnsW_t5FsSwU-228" style="edgeStyle=orthogonalEdgeStyle;rounded=0;orthogonalLoop=1;jettySize=auto;html=1;startArrow=none;startFill=0;endArrow=diamondThin;endFill=0;endSize=13;entryX=0;entryY=0.5;entryDx=0;entryDy=0;" edge="1" parent="1" source="kWz1B422EnsW_t5FsSwU-17" target="kWz1B422EnsW_t5FsSwU-83">
          <mxGeometry relative="1" as="geometry">
            <mxPoint x="970" y="726" as="targetPoint" />
            <Array as="points">
              <mxPoint x="910" y="970" />
              <mxPoint x="910" y="727" />
            </Array>
          </mxGeometry>
        </mxCell>
        <mxCell id="kWz1B422EnsW_t5FsSwU-229" value="1" style="edgeLabel;html=1;align=center;verticalAlign=middle;resizable=0;points=[];" connectable="0" vertex="1" parent="kWz1B422EnsW_t5FsSwU-228">
          <mxGeometry x="0.9583" y="-2" relative="1" as="geometry">
            <mxPoint x="-7" as="offset" />
          </mxGeometry>
        </mxCell>
        <mxCell id="kWz1B422EnsW_t5FsSwU-230" value="0..*" style="edgeLabel;html=1;align=center;verticalAlign=middle;resizable=0;points=[];" connectable="0" vertex="1" parent="kWz1B422EnsW_t5FsSwU-228">
          <mxGeometry x="-0.9374" y="5" relative="1" as="geometry">
            <mxPoint x="-1" y="1" as="offset" />
          </mxGeometry>
        </mxCell>
        <mxCell id="kWz1B422EnsW_t5FsSwU-231" value="add course to cart" style="edgeLabel;html=1;align=center;verticalAlign=middle;resizable=0;points=[];" connectable="0" vertex="1" parent="kWz1B422EnsW_t5FsSwU-228">
          <mxGeometry x="-0.2252" relative="1" as="geometry">
            <mxPoint x="1" as="offset" />
          </mxGeometry>
        </mxCell>
        <mxCell id="kWz1B422EnsW_t5FsSwU-232" value="CouponList" style="swimlane;fontStyle=1;align=center;verticalAlign=top;childLayout=stackLayout;horizontal=1;startSize=26;horizontalStack=0;resizeParent=1;resizeParentMax=0;resizeLast=0;collapsible=1;marginBottom=0;whiteSpace=wrap;html=1;fillColor=#FFF2CC;strokeColor=#FFD966;" vertex="1" parent="1">
          <mxGeometry x="1110" y="170" width="210" height="100" as="geometry" />
        </mxCell>
        <mxCell id="kWz1B422EnsW_t5FsSwU-233" value="-type" style="text;strokeColor=none;fillColor=none;align=left;verticalAlign=top;spacingLeft=4;spacingRight=4;overflow=hidden;rotatable=0;points=[[0,0.5],[1,0.5]];portConstraint=eastwest;whiteSpace=wrap;html=1;" vertex="1" parent="kWz1B422EnsW_t5FsSwU-232">
          <mxGeometry y="26" width="210" height="26" as="geometry" />
        </mxCell>
        <mxCell id="kWz1B422EnsW_t5FsSwU-234" value="" style="line;strokeWidth=1;fillColor=none;align=left;verticalAlign=middle;spacingTop=-1;spacingLeft=3;spacingRight=3;rotatable=0;labelPosition=right;points=[];portConstraint=eastwest;strokeColor=inherit;" vertex="1" parent="kWz1B422EnsW_t5FsSwU-232">
          <mxGeometry y="52" width="210" height="8" as="geometry" />
        </mxCell>
        <mxCell id="kWz1B422EnsW_t5FsSwU-235" value="+ckeck_coupon(code) : boolean&lt;br&gt;+check_condition(coupon) : boolean" style="text;strokeColor=none;fillColor=none;align=left;verticalAlign=top;spacingLeft=4;spacingRight=4;overflow=hidden;rotatable=0;points=[[0,0.5],[1,0.5]];portConstraint=eastwest;whiteSpace=wrap;html=1;" vertex="1" parent="kWz1B422EnsW_t5FsSwU-232">
          <mxGeometry y="60" width="210" height="40" as="geometry" />
        </mxCell>
        <mxCell id="kWz1B422EnsW_t5FsSwU-236" value="CouponCourse" style="swimlane;fontStyle=1;align=center;verticalAlign=top;childLayout=stackLayout;horizontal=1;startSize=26;horizontalStack=0;resizeParent=1;resizeParentMax=0;resizeLast=0;collapsible=1;marginBottom=0;whiteSpace=wrap;html=1;gradientColor=#ffffff;swimlaneFillColor=none;fillColor=#daebda;fillStyle=auto;gradientDirection=west;" vertex="1" parent="1">
          <mxGeometry x="-495" y="440" width="160" height="110" as="geometry" />
        </mxCell>
        <mxCell id="kWz1B422EnsW_t5FsSwU-237" value="-condition" style="text;strokeColor=none;fillColor=none;align=left;verticalAlign=top;spacingLeft=4;spacingRight=4;overflow=hidden;rotatable=0;points=[[0,0.5],[1,0.5]];portConstraint=eastwest;whiteSpace=wrap;html=1;" vertex="1" parent="kWz1B422EnsW_t5FsSwU-236">
          <mxGeometry y="26" width="160" height="44" as="geometry" />
        </mxCell>
        <mxCell id="kWz1B422EnsW_t5FsSwU-238" value="" style="line;strokeWidth=1;fillColor=none;align=left;verticalAlign=middle;spacingTop=-1;spacingLeft=3;spacingRight=3;rotatable=0;labelPosition=right;points=[];portConstraint=eastwest;strokeColor=inherit;" vertex="1" parent="kWz1B422EnsW_t5FsSwU-236">
          <mxGeometry y="70" width="160" height="8" as="geometry" />
        </mxCell>
        <mxCell id="kWz1B422EnsW_t5FsSwU-239" value="+ method(type): type" style="text;strokeColor=none;fillColor=none;align=left;verticalAlign=top;spacingLeft=4;spacingRight=4;overflow=hidden;rotatable=0;points=[[0,0.5],[1,0.5]];portConstraint=eastwest;whiteSpace=wrap;html=1;" vertex="1" parent="kWz1B422EnsW_t5FsSwU-236">
          <mxGeometry y="78" width="160" height="32" as="geometry" />
        </mxCell>
        <mxCell id="kWz1B422EnsW_t5FsSwU-240" value="CouponInstructor" style="swimlane;fontStyle=1;align=center;verticalAlign=top;childLayout=stackLayout;horizontal=1;startSize=26;horizontalStack=0;resizeParent=1;resizeParentMax=0;resizeLast=0;collapsible=1;marginBottom=0;whiteSpace=wrap;html=1;gradientColor=#ffffff;swimlaneFillColor=none;fillColor=#daebda;fillStyle=auto;gradientDirection=west;" vertex="1" parent="1">
          <mxGeometry x="-495" y="576" width="160" height="110" as="geometry" />
        </mxCell>
        <mxCell id="kWz1B422EnsW_t5FsSwU-241" value="-condition" style="text;strokeColor=none;fillColor=none;align=left;verticalAlign=top;spacingLeft=4;spacingRight=4;overflow=hidden;rotatable=0;points=[[0,0.5],[1,0.5]];portConstraint=eastwest;whiteSpace=wrap;html=1;" vertex="1" parent="kWz1B422EnsW_t5FsSwU-240">
          <mxGeometry y="26" width="160" height="44" as="geometry" />
        </mxCell>
        <mxCell id="kWz1B422EnsW_t5FsSwU-242" value="" style="line;strokeWidth=1;fillColor=none;align=left;verticalAlign=middle;spacingTop=-1;spacingLeft=3;spacingRight=3;rotatable=0;labelPosition=right;points=[];portConstraint=eastwest;strokeColor=inherit;" vertex="1" parent="kWz1B422EnsW_t5FsSwU-240">
          <mxGeometry y="70" width="160" height="8" as="geometry" />
        </mxCell>
        <mxCell id="kWz1B422EnsW_t5FsSwU-243" value="+ method(type): type" style="text;strokeColor=none;fillColor=none;align=left;verticalAlign=top;spacingLeft=4;spacingRight=4;overflow=hidden;rotatable=0;points=[[0,0.5],[1,0.5]];portConstraint=eastwest;whiteSpace=wrap;html=1;" vertex="1" parent="kWz1B422EnsW_t5FsSwU-240">
          <mxGeometry y="78" width="160" height="32" as="geometry" />
        </mxCell>
        <mxCell id="kWz1B422EnsW_t5FsSwU-244" value="CouponAll" style="swimlane;fontStyle=1;align=center;verticalAlign=top;childLayout=stackLayout;horizontal=1;startSize=26;horizontalStack=0;resizeParent=1;resizeParentMax=0;resizeLast=0;collapsible=1;marginBottom=0;whiteSpace=wrap;html=1;gradientColor=#ffffff;swimlaneFillColor=none;fillColor=#daebda;fillStyle=auto;gradientDirection=west;" vertex="1" parent="1">
          <mxGeometry x="-495" y="706" width="160" height="110" as="geometry" />
        </mxCell>
        <mxCell id="kWz1B422EnsW_t5FsSwU-245" value="-condition" style="text;strokeColor=none;fillColor=none;align=left;verticalAlign=top;spacingLeft=4;spacingRight=4;overflow=hidden;rotatable=0;points=[[0,0.5],[1,0.5]];portConstraint=eastwest;whiteSpace=wrap;html=1;" vertex="1" parent="kWz1B422EnsW_t5FsSwU-244">
          <mxGeometry y="26" width="160" height="44" as="geometry" />
        </mxCell>
        <mxCell id="kWz1B422EnsW_t5FsSwU-246" value="" style="line;strokeWidth=1;fillColor=none;align=left;verticalAlign=middle;spacingTop=-1;spacingLeft=3;spacingRight=3;rotatable=0;labelPosition=right;points=[];portConstraint=eastwest;strokeColor=inherit;" vertex="1" parent="kWz1B422EnsW_t5FsSwU-244">
          <mxGeometry y="70" width="160" height="8" as="geometry" />
        </mxCell>
        <mxCell id="kWz1B422EnsW_t5FsSwU-247" value="+ method(type): type" style="text;strokeColor=none;fillColor=none;align=left;verticalAlign=top;spacingLeft=4;spacingRight=4;overflow=hidden;rotatable=0;points=[[0,0.5],[1,0.5]];portConstraint=eastwest;whiteSpace=wrap;html=1;" vertex="1" parent="kWz1B422EnsW_t5FsSwU-244">
          <mxGeometry y="78" width="160" height="32" as="geometry" />
        </mxCell>
        <mxCell id="kWz1B422EnsW_t5FsSwU-248" value="Instructor" style="swimlane;fontStyle=1;align=center;verticalAlign=top;childLayout=stackLayout;horizontal=1;startSize=26;horizontalStack=0;resizeParent=1;resizeParentMax=0;resizeLast=0;collapsible=1;marginBottom=0;whiteSpace=wrap;html=1;fillColor=#dae8fc;strokeColor=#6c8ebf;" vertex="1" parent="1">
          <mxGeometry x="-10" y="425" width="220" height="170" as="geometry" />
        </mxCell>
        <mxCell id="kWz1B422EnsW_t5FsSwU-249" value="-description" style="text;strokeColor=none;fillColor=none;align=left;verticalAlign=top;spacingLeft=4;spacingRight=4;overflow=hidden;rotatable=0;points=[[0,0.5],[1,0.5]];portConstraint=eastwest;whiteSpace=wrap;html=1;" vertex="1" parent="kWz1B422EnsW_t5FsSwU-248">
          <mxGeometry y="26" width="220" height="26" as="geometry" />
        </mxCell>
        <mxCell id="kWz1B422EnsW_t5FsSwU-250" value="" style="line;strokeWidth=1;fillColor=none;align=left;verticalAlign=middle;spacingTop=-1;spacingLeft=3;spacingRight=3;rotatable=0;labelPosition=right;points=[];portConstraint=eastwest;strokeColor=inherit;" vertex="1" parent="kWz1B422EnsW_t5FsSwU-248">
          <mxGeometry y="52" width="220" height="8" as="geometry" />
        </mxCell>
        <mxCell id="kWz1B422EnsW_t5FsSwU-251" value="+ add_course(Course) : boolean&lt;br style=&quot;border-color: var(--border-color); padding: 0px; margin: 0px;&quot;&gt;&lt;span style=&quot;&quot;&gt;+ edit_course(Course) : boolean&lt;/span&gt;&lt;br style=&quot;border-color: var(--border-color); padding: 0px; margin: 0px;&quot;&gt;&lt;span style=&quot;&quot;&gt;+create_coupon(id,passcode,&lt;br&gt;start_date,end_date,type) : boolean&lt;/span&gt;&lt;br style=&quot;border-color: var(--border-color); padding: 0px; margin: 0px;&quot;&gt;&lt;span style=&quot;&quot;&gt;+&amp;nbsp;edit_profile(Account)&amp;nbsp; : boolean&lt;/span&gt;&lt;br style=&quot;border-color: var(--border-color); padding: 0px; margin: 0px;&quot;&gt;+ create_user(Account ) : boolean&lt;br&gt;+&lt;span style=&quot;font-size: 11px; background-color: rgb(255, 255, 255);&quot;&gt;search_instructor(keyword) : list&lt;/span&gt;&lt;span style=&quot;&quot;&gt;&lt;br&gt;&lt;/span&gt;" style="text;strokeColor=none;fillColor=none;align=left;verticalAlign=top;spacingLeft=4;spacingRight=4;overflow=hidden;rotatable=0;points=[[0,0.5],[1,0.5]];portConstraint=eastwest;whiteSpace=wrap;html=1;" vertex="1" parent="kWz1B422EnsW_t5FsSwU-248">
          <mxGeometry y="60" width="220" height="110" as="geometry" />
        </mxCell>
      </root>
    </mxGraphModel>
  </diagram>
</mxfile>
